<svg xmlns="http://www.w3.org/2000/svg" width="19.623" height="20.173" viewBox="0 0 19.623 20.173">
  <path id="ic_settings_24px" d="M19.579,13.075a7.86,7.86,0,0,0,.071-.988,7.861,7.861,0,0,0-.071-.988l2.128-1.664a.509.509,0,0,0,.121-.646L19.811,5.3a.507.507,0,0,0-.615-.222L16.684,6.085a7.369,7.369,0,0,0-1.7-.988L14.6,2.424A.492.492,0,0,0,14.1,2H10.067a.492.492,0,0,0-.494.424L9.189,5.1a7.749,7.749,0,0,0-1.7.988L4.973,5.076a.492.492,0,0,0-.615.222L2.341,8.788a.5.5,0,0,0,.121.646L4.59,11.1a8,8,0,0,0-.071.988,8,8,0,0,0,.071.988L2.462,14.739a.509.509,0,0,0-.121.646l2.017,3.49a.507.507,0,0,0,.615.222l2.512-1.009a7.369,7.369,0,0,0,1.7.988l.383,2.673a.492.492,0,0,0,.494.424H14.1a.492.492,0,0,0,.494-.424l.383-2.673a7.749,7.749,0,0,0,1.7-.988L19.2,19.1a.492.492,0,0,0,.615-.222l2.017-3.49a.509.509,0,0,0-.121-.646Zm-7.494,2.542a3.53,3.53,0,1,1,3.53-3.53A3.534,3.534,0,0,1,12.084,15.617Z" transform="translate(-2.271 -2)" fill="#2e4765"/>
</svg>
