<svg id="Grupo_8246" data-name="Grupo 8246" xmlns="http://www.w3.org/2000/svg" width="30.797" height="40.122" viewBox="0 0 30.797 40.122">
  <path id="Trazado_10248" data-name="Trazado 10248" d="M181.415,260.118a.588.588,0,0,0,0,1.175h6.191a.933.933,0,0,0,.932-.932v-.4a6.269,6.269,0,0,0-12.538,0v.4a.933.933,0,0,0,.932.932h1.71a.588.588,0,0,0,0-1.175h-1.467v-.157a5.094,5.094,0,0,1,10.187,0v.157Z" transform="translate(-166.871 -233.842)" fill="#fff"/>
  <path id="Trazado_10249" data-name="Trazado 10249" d="M90.3,5.343V1.058A1.059,1.059,0,0,0,89.239,0H65.766a.588.588,0,0,0,0,1.175H89.121V5.343a.2.2,0,0,1-.2.2H77.21V3.388a.588.588,0,0,0-.588-.588H73.174a.588.588,0,0,0-.588.588V5.544H60.877a.2.2,0,0,1-.2-.2V1.175H63.09A.588.588,0,0,0,63.09,0H60.558A1.059,1.059,0,0,0,59.5,1.058V5.343A1.378,1.378,0,0,0,60.877,6.72h.1l-1.061,5.923a18.768,18.768,0,0,0-.293,3.3V38.868a1.256,1.256,0,0,0,1.255,1.255H88.915a1.256,1.256,0,0,0,1.255-1.255V20.218a.588.588,0,0,0-1.175,0v18.65a.079.079,0,0,1-.079.079H60.882a.079.079,0,0,1-.079-.079V15.942a17.6,17.6,0,0,1,.274-3.092l1.1-6.131H72.587V9.343a.588.588,0,0,0,.588.588h3.448a.588.588,0,0,0,.588-.588V6.72H87.621l1.1,6.131a17.592,17.592,0,0,1,.275,3.092v1.479a.588.588,0,0,0,1.175,0V15.942a18.762,18.762,0,0,0-.293-3.3L88.815,6.72h.1A1.378,1.378,0,0,0,90.3,5.343ZM76.035,8.756H73.762V3.975h2.273Z" transform="translate(-59.5)" fill="#fff"/>
</svg>
