<svg xmlns="http://www.w3.org/2000/svg" xmlns:xlink="http://www.w3.org/1999/xlink" width="29.089" height="28.949" viewBox="0 0 29.089 28.949">
  <defs>
    <clipPath id="clip-path">
      <rect id="Rectángulo_3057" data-name="Rectángulo 3057" width="29.089" height="28.949" transform="translate(630.343 155.528)" fill="none"/>
    </clipPath>
  </defs>
  <g id="Grupo_11485" data-name="Grupo 11485" transform="translate(-630.343 -155.528)" opacity="0.8">
    <g id="Grupo_11484" data-name="Grupo 11484">
      <g id="Grupo_11483" data-name="Grupo 11483" clip-path="url(#clip-path)">
        <path id="Trazado_3895" data-name="Trazado 3895" d="M651.846,167.166l1.679-.106h.009a3.956,3.956,0,0,0,2.947-1.722l1.328-1.948a7.86,7.86,0,0,0,1.261-5.766,1.775,1.775,0,0,0-1.665-1.475,7.856,7.856,0,0,0-5.573,1.943l-1.774,1.551a3.957,3.957,0,0,0-1.355,3.132v.01l.1,1.679a2.367,2.367,0,0,1-.658,1.772l-13.865,14.242a2.014,2.014,0,0,0-.539,1.5,2.315,2.315,0,0,0,2.346,2.253c.062,0,.124,0,.186-.007a2.017,2.017,0,0,0,1.421-.717l12.475-15.47a2.361,2.361,0,0,1,1.681-.866m-2.347.327L637.024,182.96a1.166,1.166,0,0,1-.826.4,1.464,1.464,0,0,1-1.6-1.312c0-.038-.006-.075-.007-.113a1.165,1.165,0,0,1,.3-.865l13.864-14.242a3.225,3.225,0,0,0,.9-2.417l-.1-1.675a3.1,3.1,0,0,1,1.063-2.452l1.775-1.552a7,7,0,0,1,4.968-1.731.917.917,0,0,1,.86.762,7.005,7.005,0,0,1-1.123,5.141l-1.328,1.948a3.1,3.1,0,0,1-2.307,1.349l-1.674.106a3.227,3.227,0,0,0-2.293,1.182Z" fill="#fff"/>
        <path id="Trazado_3896" data-name="Trazado 3896" d="M651.846,167.166l1.679-.106h.009a3.956,3.956,0,0,0,2.947-1.722l1.328-1.948a7.86,7.86,0,0,0,1.261-5.766,1.775,1.775,0,0,0-1.665-1.475,7.856,7.856,0,0,0-5.573,1.943l-1.774,1.551a3.957,3.957,0,0,0-1.355,3.132v.01l.1,1.679a2.367,2.367,0,0,1-.658,1.772l-13.865,14.242a2.014,2.014,0,0,0-.539,1.5,2.315,2.315,0,0,0,2.346,2.253c.062,0,.124,0,.186-.007a2.017,2.017,0,0,0,1.421-.717l12.475-15.47A2.361,2.361,0,0,1,651.846,167.166Zm-2.347.327L637.024,182.96a1.166,1.166,0,0,1-.826.4,1.464,1.464,0,0,1-1.6-1.312c0-.038-.006-.075-.007-.113a1.165,1.165,0,0,1,.3-.865l13.864-14.242a3.225,3.225,0,0,0,.9-2.417l-.1-1.675a3.1,3.1,0,0,1,1.063-2.452l1.775-1.552a7,7,0,0,1,4.968-1.731.917.917,0,0,1,.86.762,7.005,7.005,0,0,1-1.123,5.141l-1.328,1.948a3.1,3.1,0,0,1-2.307,1.349l-1.674.106a3.227,3.227,0,0,0-2.293,1.182Z" fill="none" stroke="#fff" stroke-width="0.5"/>
        <path id="Trazado_3897" data-name="Trazado 3897" d="M658.389,180.37l-9.3-8.467a.429.429,0,0,0-.577.634L657.806,181a1.166,1.166,0,0,1,.354.847,1.464,1.464,0,0,1-1.41,1.516h-.106a1.161,1.161,0,0,1-.845-.35l-8.284-9.093a.429.429,0,0,0-.634.577l8.286,9.1a2.015,2.015,0,0,0,1.46.628h.045a2.32,2.32,0,0,0,2.348-2.291c0-.033,0-.067,0-.1a2.02,2.02,0,0,0-.63-1.462" fill="#fff"/>
        <path id="Trazado_3898" data-name="Trazado 3898" d="M658.389,180.37l-9.3-8.467a.429.429,0,0,0-.577.634L657.806,181a1.166,1.166,0,0,1,.354.847,1.464,1.464,0,0,1-1.41,1.516h-.106a1.161,1.161,0,0,1-.845-.35l-8.284-9.093a.429.429,0,0,0-.634.577l8.286,9.1a2.015,2.015,0,0,0,1.46.628h.045a2.32,2.32,0,0,0,2.348-2.291c0-.033,0-.067,0-.1A2.02,2.02,0,0,0,658.389,180.37Z" fill="none" stroke="#fff" stroke-width="0.5"/>
        <path id="Trazado_3899" data-name="Trazado 3899" d="M635.769,167.084a3.965,3.965,0,0,0,2.594,1.049h.009l1.683.006a2.36,2.36,0,0,1,1.729.762l.741.816a.428.428,0,1,0,.633-.577l-.742-.815a3.224,3.224,0,0,0-2.358-1.041l-1.676-.008a3.111,3.111,0,0,1-2.01-.8l-4.878-5.8a.148.148,0,0,1,.218-.2l4.438,4.438a1.127,1.127,0,0,0,1.592,0l.521-.521.926-.927.522-.521a1.127,1.127,0,0,0,0-1.591l-4.44-4.439a.148.148,0,0,1,.2-.218l5.8,4.877a3.111,3.111,0,0,1,.8,2.01l.005,1.678a3.223,3.223,0,0,0,1.043,2.359l.794.723a.428.428,0,1,0,.577-.633l-.793-.723a2.365,2.365,0,0,1-.764-1.73l-.007-1.682v-.009a3.972,3.972,0,0,0-1.047-2.6.462.462,0,0,0-.04-.037l-5.818-4.891a1,1,0,0,0-1.36,1.479l4.439,4.439a.269.269,0,0,1,0,.379l-.22.219-4.943-4.947a.429.429,0,1,0-.637.574c.009.01.02.021.03.03l4.948,4.947-.321.32-4.949-4.944a.428.428,0,0,0-.629.582l.023.023,4.947,4.947-.218.219a.269.269,0,0,1-.38,0l-4.437-4.441a1.005,1.005,0,0,0-1.479,1.36l4.894,5.817a.353.353,0,0,0,.037.04Z" fill="#fff"/>
        <path id="Trazado_3900" data-name="Trazado 3900" d="M635.769,167.084a3.965,3.965,0,0,0,2.594,1.049h.009l1.683.006a2.36,2.36,0,0,1,1.729.762l.741.816a.428.428,0,1,0,.633-.577l-.742-.815a3.224,3.224,0,0,0-2.358-1.041l-1.676-.008a3.111,3.111,0,0,1-2.01-.8l-4.878-5.8a.148.148,0,0,1,.218-.2l4.438,4.438a1.127,1.127,0,0,0,1.592,0l.521-.521.926-.927.522-.521a1.127,1.127,0,0,0,0-1.591l-4.44-4.439a.148.148,0,0,1,.2-.218l5.8,4.877a3.111,3.111,0,0,1,.8,2.01l.005,1.678a3.223,3.223,0,0,0,1.043,2.359l.794.723a.428.428,0,1,0,.577-.633l-.793-.723a2.365,2.365,0,0,1-.764-1.73l-.007-1.682v-.009a3.972,3.972,0,0,0-1.047-2.6.462.462,0,0,0-.04-.037l-5.818-4.891a1,1,0,0,0-1.36,1.479l4.439,4.439a.269.269,0,0,1,0,.379l-.22.219-4.943-4.947a.429.429,0,1,0-.637.574c.009.01.02.021.03.03l4.948,4.947-.321.32-4.949-4.944a.428.428,0,0,0-.629.582l.023.023,4.947,4.947-.218.219a.269.269,0,0,1-.38,0l-4.437-4.441a1.005,1.005,0,0,0-1.479,1.36l4.894,5.817a.353.353,0,0,0,.037.04Z" fill="none" stroke="#fff" stroke-width="0.5"/>
      </g>
    </g>
  </g>
</svg>
