<svg xmlns="http://www.w3.org/2000/svg" xmlns:xlink="http://www.w3.org/1999/xlink" width="20.47" height="24.663" viewBox="0 0 20.47 24.663">
  <defs>
    <clipPath id="clip-path">
      <rect id="Rectángulo_2763" data-name="Rectángulo 2763" width="20.47" height="24.663" transform="translate(353.916 2637.798)" fill="none"/>
    </clipPath>
  </defs>
  <g id="Grupo_10912" data-name="Grupo 10912" transform="translate(-353.916 -2637.798)" opacity="0.8">
    <g id="Grupo_10911" data-name="Grupo 10911">
      <g id="Grupo_10910" data-name="Grupo 10910" clip-path="url(#clip-path)">
        <path id="Trazado_3629" data-name="Trazado 3629" d="M373.691,2651.6c-.6-.6-1.192-1.2-1.789-1.794a.265.265,0,0,1-.051-.273,7.84,7.84,0,0,0-6.22-9.178l-.013,0a7.758,7.758,0,0,0-9.127,5.961,7.666,7.666,0,0,0,1.154,6.168,9.835,9.835,0,0,0,1.419,1.617c.124.119.148.2.035.351a20.024,20.024,0,0,1-1.4,1.467c-.078.084-.123.032-.181-.022a10.326,10.326,0,0,1-3.579-8.509,10.16,10.16,0,0,1,8.3-9.364,10.22,10.22,0,0,1,11.54,13.457c-.011.032-.023.062-.035.093a.342.342,0,0,0-.048.029" fill="#fff"/>
        <path id="Trazado_3630" data-name="Trazado 3630" d="M372.056,2654.595c-.053.058-.1.112-.153.163l-5.432,5.433c-.725.725-1.452,1.446-2.17,2.177-.119.121-.181.129-.306,0q-1.955-1.971-3.924-3.926c-.117-.117-.113-.177,0-.287q.7-.683,1.386-1.387c.111-.114.172-.118.287,0,.736.747,1.486,1.483,2.218,2.233.144.146.217.147.364,0q2.936-2.952,5.88-5.9c.151-.152.225-.164.378,0,.437.462.895.9,1.345,1.353.043.043.08.086.127.137" fill="#fff"/>
        <path id="Trazado_3631" data-name="Trazado 3631" d="M361.364,2648.059a2.778,2.778,0,1,1,0,.007Z" fill="#fff"/>
      </g>
    </g>
  </g>
</svg>
