<svg xmlns="http://www.w3.org/2000/svg" xmlns:xlink="http://www.w3.org/1999/xlink" width="32.431" height="23.946" viewBox="0 0 32.431 23.946">
  <defs>
    <clipPath id="clip-path">
      <rect id="Rectángulo_3065" data-name="Rectángulo 3065" width="32.431" height="23.946" transform="translate(744.596 155.528)" fill="none"/>
    </clipPath>
  </defs>
  <g id="Grupo_11503" data-name="Grupo 11503" transform="translate(-744.596 -155.528)" opacity="0.8">
    <g id="Grupo_11502" data-name="Grupo 11502">
      <g id="Grupo_11501" data-name="Grupo 11501" clip-path="url(#clip-path)">
        <path id="Trazado_3903" data-name="Trazado 3903" d="M773.021,166.331a9.1,9.1,0,0,0-3.211-.551.467.467,0,1,0,0,.935,8.107,8.107,0,0,1,2.792.451.467.467,0,0,0,.418-.836Z" fill="#fff"/>
        <path id="Trazado_3904" data-name="Trazado 3904" d="M773.021,166.331a9.1,9.1,0,0,0-3.211-.551.467.467,0,1,0,0,.935,8.107,8.107,0,0,1,2.792.451.467.467,0,0,0,.418-.836Z" fill="none" stroke="#fff" stroke-width="0.5"/>
        <path id="Trazado_3905" data-name="Trazado 3905" d="M775.353,172.991l-1.928-.551a.2.2,0,0,1-.142-.188v-.645a3.5,3.5,0,0,0,.446-.367,3.441,3.441,0,0,0,1.051-2.489v-.891l.187-.374a2.97,2.97,0,0,0,.313-1.328v-2.41a.467.467,0,0,0-.468-.468h-4.5a2.972,2.972,0,0,0-2.968,2.969v.027a2.485,2.485,0,0,0,.26,1.1l.24.481v.765a3.649,3.649,0,0,0,1.5,2.949v.676c0,.1,0,.148-.386.258l-.944.269-2.726-.992a.466.466,0,0,0-.128-.358l-.871-.915v-1.536c.092-.076.182-.154.27-.237a5.485,5.485,0,0,0,1.73-3.991v-1.227a5.406,5.406,0,0,0,.5-2.273v-5a.468.468,0,0,0-.468-.468h-7a4.479,4.479,0,0,0-4.47,4.47v1a5.424,5.424,0,0,0,.5,2.273v1.056a5.723,5.723,0,0,0,2,4.363v1.573l-.871.915a.473.473,0,0,0-.128.358l-2.878,1.047a2.4,2.4,0,0,0-.579.3l-.452-.226a3.573,3.573,0,0,0,1.791-1.45.46.46,0,0,0,0-.418,8.342,8.342,0,0,1-.413-2.9c-.011-.331-.021-.644-.041-.922a3.968,3.968,0,0,0-7.936,0c-.021.276-.031.591-.041.922a8.321,8.321,0,0,1-.414,2.9.466.466,0,0,0,0,.418,3.564,3.564,0,0,0,1.791,1.446l-1.256.628a1.96,1.96,0,0,0-1.075,1.761v3.456a.468.468,0,0,0,.936,0v-3.456a1.027,1.027,0,0,1,.571-.924l1.564-.781.543.516a1.967,1.967,0,0,0,2.712,0l.544-.516.509.254a2.454,2.454,0,0,0-.376,1.309v3.6a.467.467,0,0,0,.935,0v-3.6a1.537,1.537,0,0,1,1.01-1.446l3.038-1.1,1.263,1.9a.966.966,0,0,0,.71.426c.033,0,.065.005.1.005a.964.964,0,0,0,.684-.284l.77-.771v4.873a.468.468,0,0,0,.936,0v-4.871l.77.77a.967.967,0,0,0,.684.284.8.8,0,0,0,.1-.005.963.963,0,0,0,.71-.426l1.259-1.9,3.035,1.1a1.537,1.537,0,0,1,1.009,1.446v3.6a.468.468,0,1,0,.936,0v-3.6a2.473,2.473,0,0,0-.689-1.712l.116-.032a2.593,2.593,0,0,0,.435-.157l1.194,1.194v4.307a.468.468,0,1,0,.936,0v-4.31l1.186-1.186a1.1,1.1,0,0,0,.2.079l1.928.551a1.038,1.038,0,0,1,.747.991v3.87a.467.467,0,0,0,.935,0v-3.87a1.977,1.977,0,0,0-1.424-1.89m-27.507-.827a3.36,3.36,0,0,1-1.5-.964,5.191,5.191,0,0,0,.267-1.12,3.5,3.5,0,0,0,1.234,1.524Zm2.681,1.266a1.033,1.033,0,0,1-1.423,0l-.435-.413a.985.985,0,0,0,.113-.457v-.5a3.482,3.482,0,0,0,2.066,0v.5a.967.967,0,0,0,.114.456Zm-.712-2.147a2.535,2.535,0,0,1-2.533-2.532.465.465,0,0,0-.462-.468.383.383,0,0,0-.083.007c0-.04,0-.081,0-.121.011-.322.021-.625.039-.886a3.478,3.478,0,0,1,.946-2.183,2.908,2.908,0,0,1,4.111-.068l.067.068a3.466,3.466,0,0,1,.945,2.18c.019.261.029.565.039.886v.084a4.2,4.2,0,0,0-2.31-1.688,5.841,5.841,0,0,0-1.779-.282.467.467,0,0,0-.324.142l-.841.878a.467.467,0,1,0,.673.649l.7-.728a3.784,3.784,0,0,1,3.3,1.923,2.526,2.526,0,0,1-2.5,2.139m1.968.883v-.557a3.46,3.46,0,0,0,1.235-1.526,5.131,5.131,0,0,0,.267,1.118,3.381,3.381,0,0,1-1.5.965m4.5-7.589v-1.16a.461.461,0,0,0-.047-.207,4.5,4.5,0,0,1-.453-1.966v-1a3.537,3.537,0,0,1,3.533-3.534h6.536v4.534a4.484,4.484,0,0,1-.454,1.966.474.474,0,0,0-.047.206v1.33a4.488,4.488,0,0,1-1.434,3.306c-.115.107-.234.208-.359.3l-.007.006a4.506,4.506,0,0,1-3.037.906,4.635,4.635,0,0,1-4.231-4.694m2.634,9.412a.028.028,0,0,1-.026.01.033.033,0,0,1-.023-.015l-1.455-2.182.469-.492,2.2,1.508Zm1.9-1.8-2.533-1.732v-.875a5.267,5.267,0,0,0,2.17.627c.124.008.246.011.368.011a5.414,5.414,0,0,0,2.528-.619v.854Zm1.95,1.8a.032.032,0,0,1-.024.015.028.028,0,0,1-.026-.009l-1.171-1.171,2.2-1.508.468.491Zm8.541-.4-1.061-1.061a1.27,1.27,0,0,0,.028-.275v-.2a3.32,3.32,0,0,0,.927.164h.107a3.483,3.483,0,0,0,1.034-.156v.188a1.055,1.055,0,0,0,.034.275Zm1.764-3.022a2.517,2.517,0,0,1-1.843.714,2.618,2.618,0,0,1-2.455-2.658v-.875a.453.453,0,0,0-.049-.207l-.29-.578a1.532,1.532,0,0,1-.161-.688v-.028a2.035,2.035,0,0,1,2.033-2.033h4.034v1.943a2.049,2.049,0,0,1-.215.909l-.237.473a.474.474,0,0,0-.049.206v1.005a2.514,2.514,0,0,1-.767,1.817Z" fill="#fff"/>
        <path id="Trazado_3906" data-name="Trazado 3906" d="M775.353,172.991l-1.928-.551a.2.2,0,0,1-.142-.188v-.645a3.5,3.5,0,0,0,.446-.367,3.441,3.441,0,0,0,1.051-2.489v-.891l.187-.374a2.97,2.97,0,0,0,.313-1.328v-2.41a.467.467,0,0,0-.468-.468h-4.5a2.972,2.972,0,0,0-2.968,2.969v.027a2.485,2.485,0,0,0,.26,1.1l.24.481v.765a3.649,3.649,0,0,0,1.5,2.949v.676c0,.1,0,.148-.386.258l-.944.269-2.726-.992a.466.466,0,0,0-.128-.358l-.871-.915v-1.536c.092-.076.182-.154.27-.237a5.485,5.485,0,0,0,1.73-3.991v-1.227a5.406,5.406,0,0,0,.5-2.273v-5a.468.468,0,0,0-.468-.468h-7a4.479,4.479,0,0,0-4.47,4.47v1a5.424,5.424,0,0,0,.5,2.273v1.056a5.723,5.723,0,0,0,2,4.363v1.573l-.871.915a.473.473,0,0,0-.128.358l-2.878,1.047a2.4,2.4,0,0,0-.579.3l-.452-.226a3.573,3.573,0,0,0,1.791-1.45.46.46,0,0,0,0-.418,8.342,8.342,0,0,1-.413-2.9c-.011-.331-.021-.644-.041-.922a3.968,3.968,0,0,0-7.936,0c-.021.276-.031.591-.041.922a8.321,8.321,0,0,1-.414,2.9.466.466,0,0,0,0,.418,3.564,3.564,0,0,0,1.791,1.446l-1.256.628a1.96,1.96,0,0,0-1.075,1.761v3.456a.468.468,0,0,0,.936,0v-3.456a1.027,1.027,0,0,1,.571-.924l1.564-.781.543.516a1.967,1.967,0,0,0,2.712,0l.544-.516.509.254a2.454,2.454,0,0,0-.376,1.309v3.6a.467.467,0,0,0,.935,0v-3.6a1.537,1.537,0,0,1,1.01-1.446l3.038-1.1,1.263,1.9a.966.966,0,0,0,.71.426c.033,0,.065.005.1.005a.964.964,0,0,0,.684-.284l.77-.771v4.873a.468.468,0,0,0,.936,0v-4.871l.77.77a.967.967,0,0,0,.684.284.8.8,0,0,0,.1-.005.963.963,0,0,0,.71-.426l1.259-1.9,3.035,1.1a1.537,1.537,0,0,1,1.009,1.446v3.6a.468.468,0,1,0,.936,0v-3.6a2.473,2.473,0,0,0-.689-1.712l.116-.032a2.593,2.593,0,0,0,.435-.157l1.194,1.194v4.307a.468.468,0,1,0,.936,0v-4.31l1.186-1.186a1.1,1.1,0,0,0,.2.079l1.928.551a1.038,1.038,0,0,1,.747.991v3.87a.467.467,0,0,0,.935,0v-3.87A1.977,1.977,0,0,0,775.353,172.991Zm-27.507-.827a3.36,3.36,0,0,1-1.5-.964,5.191,5.191,0,0,0,.267-1.12,3.5,3.5,0,0,0,1.234,1.524Zm2.681,1.266a1.033,1.033,0,0,1-1.423,0l-.435-.413a.985.985,0,0,0,.113-.457v-.5a3.482,3.482,0,0,0,2.066,0v.5a.967.967,0,0,0,.114.456Zm-.712-2.147a2.535,2.535,0,0,1-2.533-2.532.465.465,0,0,0-.462-.468.383.383,0,0,0-.083.007c0-.04,0-.081,0-.121.011-.322.021-.625.039-.886a3.478,3.478,0,0,1,.946-2.183,2.908,2.908,0,0,1,4.111-.068l.067.068a3.466,3.466,0,0,1,.945,2.18c.019.261.029.565.039.886v.084a4.2,4.2,0,0,0-2.31-1.688,5.841,5.841,0,0,0-1.779-.282.467.467,0,0,0-.324.142l-.841.878a.467.467,0,1,0,.673.649l.7-.728a3.784,3.784,0,0,1,3.3,1.923A2.526,2.526,0,0,1,749.815,171.283Zm1.968.883v-.557a3.46,3.46,0,0,0,1.235-1.526,5.131,5.131,0,0,0,.267,1.118A3.381,3.381,0,0,1,751.783,172.166Zm4.5-7.589v-1.16a.461.461,0,0,0-.047-.207,4.5,4.5,0,0,1-.453-1.966v-1a3.537,3.537,0,0,1,3.533-3.534h6.536v4.534a4.484,4.484,0,0,1-.454,1.966.474.474,0,0,0-.047.206v1.33a4.488,4.488,0,0,1-1.434,3.306c-.115.107-.234.208-.359.3l-.007.006a4.506,4.506,0,0,1-3.037.906A4.635,4.635,0,0,1,756.285,164.577Zm2.634,9.412a.028.028,0,0,1-.026.01.033.033,0,0,1-.023-.015l-1.455-2.182.469-.492,2.2,1.508Zm1.9-1.8-2.533-1.732v-.875a5.267,5.267,0,0,0,2.17.627c.124.008.246.011.368.011a5.414,5.414,0,0,0,2.528-.619v.854Zm1.95,1.8a.032.032,0,0,1-.024.015.028.028,0,0,1-.026-.009l-1.171-1.171,2.2-1.508.468.491Zm8.541-.4-1.061-1.061a1.27,1.27,0,0,0,.028-.275v-.2a3.32,3.32,0,0,0,.927.164h.107a3.483,3.483,0,0,0,1.034-.156v.188a1.055,1.055,0,0,0,.034.275Zm1.764-3.022a2.517,2.517,0,0,1-1.843.714,2.618,2.618,0,0,1-2.455-2.658v-.875a.453.453,0,0,0-.049-.207l-.29-.578a1.532,1.532,0,0,1-.161-.688v-.028a2.035,2.035,0,0,1,2.033-2.033h4.034v1.943a2.049,2.049,0,0,1-.215.909l-.237.473a.474.474,0,0,0-.049.206v1.005a2.514,2.514,0,0,1-.767,1.817Z" fill="none" stroke="#fff" stroke-width="0.5"/>
        <path id="Trazado_3907" data-name="Trazado 3907" d="M774.31,175.284a.468.468,0,0,0-.468.468v3a.468.468,0,0,0,.936,0v-3a.467.467,0,0,0-.468-.468" fill="#fff"/>
        <path id="Trazado_3908" data-name="Trazado 3908" d="M774.31,175.284a.468.468,0,0,0-.468.468v3a.468.468,0,0,0,.936,0v-3A.467.467,0,0,0,774.31,175.284Z" fill="none" stroke="#fff" stroke-width="0.5"/>
        <path id="Trazado_3909" data-name="Trazado 3909" d="M747.314,175.9a.468.468,0,0,0-.468.468v2.382a.468.468,0,1,0,.936,0v-2.382a.467.467,0,0,0-.468-.468" fill="#fff"/>
        <path id="Trazado_3910" data-name="Trazado 3910" d="M747.314,175.9a.468.468,0,0,0-.468.468v2.382a.468.468,0,1,0,.936,0v-2.382A.467.467,0,0,0,747.314,175.9Z" fill="none" stroke="#fff" stroke-width="0.5"/>
        <path id="Trazado_3911" data-name="Trazado 3911" d="M764.651,161.416c-1.77-1.77-5.471-1.431-6.98-1.2a.96.96,0,0,0-.821.956v1.079a.468.468,0,0,0,.936,0v-1.079a.031.031,0,0,1,.025-.031,14.788,14.788,0,0,1,3.039-.149,4.83,4.83,0,0,1,3.14,1.088.468.468,0,0,0,.661-.661" fill="#fff"/>
        <path id="Trazado_3912" data-name="Trazado 3912" d="M764.651,161.416c-1.77-1.77-5.471-1.431-6.98-1.2a.96.96,0,0,0-.821.956v1.079a.468.468,0,0,0,.936,0v-1.079a.031.031,0,0,1,.025-.031,14.788,14.788,0,0,1,3.039-.149,4.83,4.83,0,0,1,3.14,1.088.468.468,0,0,0,.661-.661Z" fill="none" stroke="#fff" stroke-width="0.5"/>
        <path id="Trazado_3913" data-name="Trazado 3913" d="M755.317,176.285a.467.467,0,0,0-.468.468v2a.468.468,0,1,0,.936,0v-2a.468.468,0,0,0-.468-.468" fill="#fff"/>
        <path id="Trazado_3914" data-name="Trazado 3914" d="M755.317,176.285a.467.467,0,0,0-.468.468v2a.468.468,0,1,0,.936,0v-2A.468.468,0,0,0,755.317,176.285Z" fill="none" stroke="#fff" stroke-width="0.5"/>
        <path id="Trazado_3915" data-name="Trazado 3915" d="M766.321,176.285a.467.467,0,0,0-.468.468v2a.468.468,0,1,0,.936,0v-2a.468.468,0,0,0-.468-.468" fill="#fff"/>
        <path id="Trazado_3916" data-name="Trazado 3916" d="M766.321,176.285a.467.467,0,0,0-.468.468v2a.468.468,0,1,0,.936,0v-2A.468.468,0,0,0,766.321,176.285Z" fill="none" stroke="#fff" stroke-width="0.5"/>
      </g>
    </g>
  </g>
</svg>
