<svg xmlns="http://www.w3.org/2000/svg" xmlns:xlink="http://www.w3.org/1999/xlink" width="30.12" height="30.117" viewBox="0 0 30.12 30.117">
  <defs>
    <clipPath id="clip-path">
      <rect id="Rectángulo_3056" data-name="Rectángulo 3056" width="30.12" height="30.117" transform="translate(479.654 152.8)" fill="none"/>
    </clipPath>
  </defs>
  <g id="Grupo_11482" data-name="Grupo 11482" transform="translate(-479.654 -152.8)" opacity="0.8">
    <g id="Grupo_11481" data-name="Grupo 11481">
      <g id="Grupo_11480" data-name="Grupo 11480" clip-path="url(#clip-path)">
        <path id="Trazado_3875" data-name="Trazado 3875" d="M509.522,161.145a.441.441,0,0,0-.2-.36l-9.174-5.809a.458.458,0,0,0-.147-.059l-9.288-1.86a.436.436,0,0,0-.317.792l4.156,2.633-3.346.992-2.834-1.795a.435.435,0,0,0-.47,0l-3.436,2.25a.434.434,0,0,0,.475.726l3.2-2.1,8.37,5.3-7,4.581-8.37-5.3,1.885-1.234a.434.434,0,0,0-.475-.726l-2.448,1.6a.443.443,0,0,0-.2.363v15.273a.436.436,0,0,0,.2.367l9.176,5.81a.439.439,0,0,0,.355.049l15.9-4.719a.434.434,0,0,0-.247-.832l-15.347,4.554V167.285l18.709-5.553V176.1l-1.185.352a.434.434,0,0,0,.247.832l1.5-.444a.434.434,0,0,0,.311-.413V161.145Zm-9.771-5.394,7.131,4.516-6.916-1.385-7.131-4.515Zm-2.205,5.738-5.367-3.4,3.346-.993,4.045,2.563a.437.437,0,0,0,.147.059l7.571,1.515-15.06,4.47,5.323-3.485a.434.434,0,0,0,.125-.6.418.418,0,0,0-.13-.128Zm-16.774.451,8.308,5.26v14.246l-8.308-5.26Z" fill="#fff"/>
        <path id="Trazado_3876" data-name="Trazado 3876" d="M509.522,161.145a.441.441,0,0,0-.2-.36l-9.174-5.809a.458.458,0,0,0-.147-.059l-9.288-1.86a.436.436,0,0,0-.317.792l4.156,2.633-3.346.992-2.834-1.795a.435.435,0,0,0-.47,0l-3.436,2.25a.434.434,0,0,0,.475.726l3.2-2.1,8.37,5.3-7,4.581-8.37-5.3,1.885-1.234a.434.434,0,0,0-.475-.726l-2.448,1.6a.443.443,0,0,0-.2.363v15.273a.436.436,0,0,0,.2.367l9.176,5.81a.439.439,0,0,0,.355.049l15.9-4.719a.434.434,0,0,0-.247-.832l-15.347,4.554V167.285l18.709-5.553V176.1l-1.185.352a.434.434,0,0,0,.247.832l1.5-.444a.434.434,0,0,0,.311-.413V161.145Zm-9.771-5.394,7.131,4.516-6.916-1.385-7.131-4.515Zm-2.205,5.738-5.367-3.4,3.346-.993,4.045,2.563a.437.437,0,0,0,.147.059l7.571,1.515-15.06,4.47,5.323-3.485a.434.434,0,0,0,.125-.6.418.418,0,0,0-.13-.128Zm-16.774.451,8.308,5.26v14.246l-8.308-5.26Z" fill="none" stroke="#fff" stroke-width="0.5"/>
        <path id="Trazado_3877" data-name="Trazado 3877" d="M506.9,170.029a.434.434,0,0,0-.383-.069l-14.679,4.368a.435.435,0,0,0-.31.414v4.233a.434.434,0,0,0,.436.432.462.462,0,0,0,.122-.018l14.679-4.369a.433.433,0,0,0,.31-.413v-4.234a.432.432,0,0,0-.175-.344m-.694,4.258L492.4,178.4v-3.328l13.811-4.111Z" fill="#fff"/>
        <path id="Trazado_3878" data-name="Trazado 3878" d="M506.9,170.029a.434.434,0,0,0-.383-.069l-14.679,4.368a.435.435,0,0,0-.31.414v4.233a.434.434,0,0,0,.436.432.462.462,0,0,0,.122-.018l14.679-4.369a.433.433,0,0,0,.31-.413v-4.234A.432.432,0,0,0,506.9,170.029Zm-.694,4.258L492.4,178.4v-3.328l13.811-4.111Z" fill="none" stroke="#fff" stroke-width="0.5"/>
        <path id="Trazado_3879" data-name="Trazado 3879" d="M496.779,176.495a.434.434,0,0,0,.434-.434v-1.23a.434.434,0,0,0-.868,0v1.23a.434.434,0,0,0,.434.434" fill="#fff"/>
        <path id="Trazado_3880" data-name="Trazado 3880" d="M496.779,176.495a.434.434,0,0,0,.434-.434v-1.23a.434.434,0,0,0-.868,0v1.23A.434.434,0,0,0,496.779,176.495Z" fill="none" stroke="#fff" stroke-width="0.5"/>
        <path id="Trazado_3881" data-name="Trazado 3881" d="M502.537,174.731a.433.433,0,0,0,.433-.434v-1.229a.434.434,0,0,0-.868,0V174.3a.434.434,0,0,0,.435.434" fill="#fff"/>
        <path id="Trazado_3882" data-name="Trazado 3882" d="M502.537,174.731a.433.433,0,0,0,.433-.434v-1.229a.434.434,0,0,0-.868,0V174.3A.434.434,0,0,0,502.537,174.731Z" fill="none" stroke="#fff" stroke-width="0.5"/>
        <path id="Trazado_3883" data-name="Trazado 3883" d="M503.817,174.385a.434.434,0,0,0,.434-.434v-1.23a.434.434,0,0,0-.868,0v1.23a.434.434,0,0,0,.434.434" fill="#fff"/>
        <path id="Trazado_3884" data-name="Trazado 3884" d="M503.817,174.385a.434.434,0,0,0,.434-.434v-1.23a.434.434,0,0,0-.868,0v1.23A.434.434,0,0,0,503.817,174.385Z" fill="none" stroke="#fff" stroke-width="0.5"/>
        <path id="Trazado_3885" data-name="Trazado 3885" d="M505.1,174.038a.434.434,0,0,0,.434-.434v-1.23a.434.434,0,0,0-.868,0v1.23a.434.434,0,0,0,.434.434" fill="#fff"/>
        <path id="Trazado_3886" data-name="Trazado 3886" d="M505.1,174.038a.434.434,0,0,0,.434-.434v-1.23a.434.434,0,0,0-.868,0v1.23A.434.434,0,0,0,505.1,174.038Z" fill="none" stroke="#fff" stroke-width="0.5"/>
        <path id="Trazado_3887" data-name="Trazado 3887" d="M493.518,177.466a.434.434,0,0,0,.434-.434V175.8a.434.434,0,0,0-.868,0v1.23a.434.434,0,0,0,.434.434" fill="#fff"/>
        <path id="Trazado_3888" data-name="Trazado 3888" d="M493.518,177.466a.434.434,0,0,0,.434-.434V175.8a.434.434,0,0,0-.868,0v1.23A.434.434,0,0,0,493.518,177.466Z" fill="none" stroke="#fff" stroke-width="0.5"/>
        <path id="Trazado_3889" data-name="Trazado 3889" d="M494.773,177.157a.433.433,0,0,0,.434-.433v-1.23a.434.434,0,0,0-.868,0v1.228A.434.434,0,0,0,494.773,177.157Z" fill="#fff"/>
        <path id="Trazado_3890" data-name="Trazado 3890" d="M494.773,177.157a.433.433,0,0,0,.434-.433v-1.23a.434.434,0,0,0-.868,0v1.228A.434.434,0,0,0,494.773,177.157Z" fill="none" stroke="#fff" stroke-width="0.5"/>
        <path id="Trazado_3891" data-name="Trazado 3891" d="M499.044,175.8a.434.434,0,0,0,.434-.434v-1.23a.434.434,0,1,0-.868,0v1.23a.434.434,0,0,0,.434.434" fill="#fff"/>
        <path id="Trazado_3892" data-name="Trazado 3892" d="M499.044,175.8a.434.434,0,0,0,.434-.434v-1.23a.434.434,0,1,0-.868,0v1.23A.434.434,0,0,0,499.044,175.8Z" fill="none" stroke="#fff" stroke-width="0.5"/>
        <path id="Trazado_3893" data-name="Trazado 3893" d="M500.271,175.482a.434.434,0,0,0,.434-.434v-1.23a.434.434,0,1,0-.868,0v1.23a.434.434,0,0,0,.434.434" fill="#fff"/>
        <path id="Trazado_3894" data-name="Trazado 3894" d="M500.271,175.482a.434.434,0,0,0,.434-.434v-1.23a.434.434,0,1,0-.868,0v1.23A.434.434,0,0,0,500.271,175.482Z" fill="none" stroke="#fff" stroke-width="0.5"/>
      </g>
    </g>
  </g>
</svg>
