<svg xmlns="http://www.w3.org/2000/svg" width="14.569" height="17.777" viewBox="0 0 14.569 17.777">
  <g id="Grupo_10022" data-name="Grupo 10022" transform="translate(-1732.383 -1278.06)">
    <path id="Trazado_3112" data-name="Trazado 3112" d="M1737.223,1295.837a4.649,4.649,0,0,1-.642-.252,1.609,1.609,0,0,1-.835-1.32c-.021-.216-.009-.435-.009-.653q0-3.393,0-6.786v-.164h1.28v.186q0,3.585,0,7.17a.466.466,0,0,0,.219.471.681.681,0,0,0,.282.067c.312.008.625,0,.937,0h6.672c.382,0,.556-.173.556-.552q0-5.635,0-11.272c0-.214-.029-.417-.241-.519a.84.84,0,0,0-.342-.063c-1.3,0-2.593,0-3.89,0h-.164l-.187-1.278H1741q2.079,0,4.159,0a1.739,1.739,0,0,1,1.495.752,1.65,1.65,0,0,1,.289.79,2.438,2.438,0,0,1,.01.255q0,5.687,0,11.372a1.671,1.671,0,0,1-.709,1.454,3.929,3.929,0,0,1-.691.312c-.03.013-.063.019-.094.029Z" fill="#f9b071"/>
    <path id="Trazado_3113" data-name="Trazado 3113" d="M1736.768,1278.06l.43.085a3.977,3.977,0,0,1,2.191,1.244,4.026,4.026,0,1,1-6.611,4.446,4,4,0,0,1-.387-2,3.905,3.905,0,0,1,.833-2.208,4.008,4.008,0,0,1,2.7-1.54c.046-.007.092-.02.137-.031Zm-.353,7.21a3.179,3.179,0,1,0-3.183-3.17A3.186,3.186,0,0,0,1736.415,1285.27Z" fill="#f9b071"/>
    <path id="Trazado_3114" data-name="Trazado 3114" d="M1741.455,1286.836c-.767,0-1.533,0-2.3,0a.418.418,0,0,1-.431-.538.4.4,0,0,1,.287-.286.679.679,0,0,1,.2-.021l4.47,0a.486.486,0,0,1,.4.148.387.387,0,0,1,.084.421.4.4,0,0,1-.378.277c-.274,0-.549,0-.823,0Z" fill="#f9b071"/>
    <path id="Trazado_3115" data-name="Trazado 3115" d="M1741.453,1288.59c.766,0,1.532,0,2.3,0a.414.414,0,0,1,.439.389.439.439,0,0,1-.368.451.911.911,0,0,1-.156.008q-2.212,0-4.426,0a.689.689,0,0,1-.311-.071.4.4,0,0,1-.2-.483.425.425,0,0,1,.411-.291c.629,0,1.258,0,1.887,0Z" fill="#f9b071"/>
    <path id="Trazado_3116" data-name="Trazado 3116" d="M1741.455,1292.131c-.748,0-1.495,0-2.242,0a.489.489,0,0,1-.4-.151.39.39,0,0,1-.074-.424.406.406,0,0,1,.354-.269l.1,0h4.512a.462.462,0,0,1,.38.151.391.391,0,0,1,.077.423.4.4,0,0,1-.369.268c-.151.006-.3,0-.454,0Z" fill="#f9b071"/>
    <path id="Trazado_3117" data-name="Trazado 3117" d="M1736.84,1281.666h.817c.388,0,.776,0,1.164,0a.414.414,0,0,1,.385.245.359.359,0,0,1-.053.436.539.539,0,0,1-.327.161c-.8.014-1.608.011-2.412.005a.423.423,0,0,1-.432-.462q-.008-1.016,0-2.03a.429.429,0,0,1,.423-.456.434.434,0,0,1,.433.463c.005.487,0,.974,0,1.462Z" fill="#f9b071"/>
  </g>
</svg>
