<svg xmlns="http://www.w3.org/2000/svg" xmlns:xlink="http://www.w3.org/1999/xlink" width="37.471" height="26.368" viewBox="0 0 37.471 26.368">
  <defs>
    <clipPath id="clip-path">
      <rect id="Rectángulo_1741" data-name="Rectángulo 1741" width="37.471" height="26.368" transform="translate(3775.29 2019.028)" fill="none"/>
    </clipPath>
  </defs>
  <g id="Grupo_8495" data-name="Grupo 8495" transform="translate(-3775.29 -2019.028)">
    <g id="Grupo_8494" data-name="Grupo 8494" clip-path="url(#clip-path)">
      <path id="Trazado_2309" data-name="Trazado 2309" d="M3806.49,2027.249h-.817v-4.831a3.122,3.122,0,0,0-2.944-3.271h-.986l2.878-6.057a2.915,2.915,0,0,0,.17-2.035,2.608,2.608,0,0,0-1.18-1.574c-12.241-7.147-13.7-6.647-23.227,9.665a3.123,3.123,0,0,0-2.944,3.272v17.7a3.122,3.122,0,0,0,2.944,3.271h22.344a3.121,3.121,0,0,0,2.944-3.271v-4.831h.817a.758.758,0,0,0,.716-.8v-6.453a.759.759,0,0,0-.715-.793m-3.543-16.36a1.051,1.051,0,0,1,.477.637,1.179,1.179,0,0,1-.069.822l-3.231,6.8h-1.92l1.825-3.84a.878.878,0,0,0,.051-.607.785.785,0,0,0-.348-.468,2.141,2.141,0,0,1-.971-1.293,2.4,2.4,0,0,1,.139-1.671.873.873,0,0,0,.051-.606.783.783,0,0,0-.347-.468L3794.85,2008a.682.682,0,0,0-.929.258q-.019.036-.036.075c-.509,1.071-3.458.864-8.188,10.811h-1.919s7.626-15,19.169-8.258m-5.551,2.52a3.809,3.809,0,0,0,1.07,1.787l-1.878,3.951h-9.273l3.892-8.188a3.229,3.229,0,0,0,3.539-1.217l2.625,1.528a4.145,4.145,0,0,0,.024,2.139Zm6.845,26.712a1.608,1.608,0,0,1-1.514,1.683h-22.343a1.607,1.607,0,0,1-1.514-1.683v-17.7a1.6,1.6,0,0,1,1.514-1.681h22.344a1.6,1.6,0,0,1,1.513,1.681v4.831h-2.79a4.042,4.042,0,0,0,0,8.04h2.79Zm1.532-6.42h-4.322a2.444,2.444,0,0,1,0-4.862h4.323Z" fill="#fff"/>
    </g>
  </g>
</svg>
