<svg xmlns="http://www.w3.org/2000/svg" width="20.435" height="21.656" viewBox="0 0 20.435 21.656">
  <g id="xls" transform="translate(-14.519 0.25)">
    <g id="Grupo_8208" data-name="Grupo 8208" transform="translate(14.769)">
      <g id="Grupo_8207" data-name="Grupo 8207" transform="translate(0)">
        <path id="Trazado_10220" data-name="Trazado 10220" d="M34.591,5.725,29.2.125A.407.407,0,0,0,28.908,0H20.875a1.632,1.632,0,0,0-1.63,1.63V7.323H15.989a1.221,1.221,0,0,0-1.22,1.219v6.1a1.221,1.221,0,0,0,1.22,1.219h3.255v3.662a1.631,1.631,0,0,0,1.63,1.627h12.2A1.63,1.63,0,0,0,34.7,19.53V6.007A.407.407,0,0,0,34.591,5.725ZM29.008,1.1l4.424,4.6H29.008ZM15.989,15.053a.406.406,0,0,1-.406-.406v-6.1a.406.406,0,0,1,.406-.406H26.975a.406.406,0,0,1,.406.406v6.1a.406.406,0,0,1-.406.406Zm17.9,4.477a.815.815,0,0,1-.817.812h-12.2a.816.816,0,0,1-.817-.813V15.867h6.917a1.221,1.221,0,0,0,1.22-1.219v-6.1a1.221,1.221,0,0,0-1.22-1.219H20.058V1.63a.817.817,0,0,1,.817-.816h7.32V6.1a.407.407,0,0,0,.407.407h5.289Z" transform="translate(-14.769)" fill="#fff" stroke="#fff" stroke-width="0.5"/>
      </g>
    </g>
    <g id="Grupo_8210" data-name="Grupo 8210" transform="translate(23.218 9.872)">
      <g id="Grupo_8209" data-name="Grupo 8209">
        <path id="Trazado_10221" data-name="Trazado 10221" d="M221.953,240.885a.982.982,0,0,0-.386-.355,3.424,3.424,0,0,0-.762-.251,1.856,1.856,0,0,1-.648-.234.268.268,0,0,1-.1-.212.254.254,0,0,1,.112-.217.806.806,0,0,1,.482-.126.712.712,0,0,1,.447.118.6.6,0,0,1,.194.387l.706-.031a1.017,1.017,0,0,0-.349-.77,1.475,1.475,0,0,0-.99-.288,1.747,1.747,0,0,0-.688.122.948.948,0,0,0-.436.354.9.9,0,0,0-.151.5.909.909,0,0,0,.322.7,1.917,1.917,0,0,0,.8.346q.441.11.565.153a.581.581,0,0,1,.254.151.318.318,0,0,1,.073.211.429.429,0,0,1-.173.337.786.786,0,0,1-.514.144.76.76,0,0,1-.511-.162.838.838,0,0,1-.252-.508l-.687.067a1.333,1.333,0,0,0,.424.893,1.514,1.514,0,0,0,1.018.306,1.98,1.98,0,0,0,.76-.128,1,1,0,0,0,.472-.39,1.029,1.029,0,0,0,.167-.563A1.039,1.039,0,0,0,221.953,240.885Z" transform="translate(-219.251 -238.905)" fill="#fff" stroke="#fff" stroke-width="0.5"/>
      </g>
    </g>
    <g id="Grupo_8212" data-name="Grupo 8212" transform="translate(20.434 9.96)">
      <g id="Grupo_8211" data-name="Grupo 8211" transform="translate(0)">
        <path id="Trazado_10222" data-name="Trazado 10222" d="M152.57,243.916v-2.877h-.706v3.466h2.46v-.589Z" transform="translate(-151.864 -241.039)" fill="#fff" stroke="#fff" stroke-width="0.5"/>
      </g>
    </g>
    <g id="Grupo_8214" data-name="Grupo 8214" transform="translate(16.803 9.931)">
      <g id="Grupo_8213" data-name="Grupo 8213" transform="translate(0)">
        <path id="Trazado_10223" data-name="Trazado 10223" d="M66.055,242.044l1.087-1.7h-.818l-.687,1.123-.7-1.123h-.825l1.082,1.671L64,243.842h.846l.777-1.209.775,1.209h.851Z" transform="translate(-64 -240.347)" fill="#fff" stroke="#fff" stroke-width="0.5"/>
      </g>
    </g>
  </g>
</svg>
