<svg xmlns="http://www.w3.org/2000/svg" width="38.773" height="50" viewBox="0 0 38.773 50">
  <path id="shop-bag" d="M37.89,45.537l-.55-1.154a11.164,11.164,0,0,1-.707-1.918c0-.015-.007-.029-.012-.044a11.074,11.074,0,0,1-.351-2.252L34.926,14.22a3.606,3.606,0,0,0-3.632-3.388H28.208V8.959a9.131,9.131,0,0,0-18.258,0v1.873H6.864A3.605,3.605,0,0,0,3.232,14.22l-.1,1.892a.739.739,0,0,0,1.476.074l.1-1.892a2.14,2.14,0,0,1,2.156-2.011H9.95v2.224a3,3,0,1,0,1.478,0V12.282h15.3v2.224a3,3,0,1,0,1.478,0V12.282h3.086a2.14,2.14,0,0,1,2.156,2.011L34.8,40.244a12.629,12.629,0,0,0,.222,1.791,124.591,124.591,0,0,1-15.939,1,124.59,124.59,0,0,1-15.939-1,12.629,12.629,0,0,0,.222-1.791L4.435,19.556a.739.739,0,0,0-1.476-.074L1.887,40.17a11.116,11.116,0,0,1-.351,2.253c0,.014-.008.028-.011.042a11.153,11.153,0,0,1-.707,1.919l-.55,1.154a2.726,2.726,0,0,0,.177,2.673A2.836,2.836,0,0,0,2.837,49.5H32.978a.725.725,0,1,0,0-1.45H2.837a1.342,1.342,0,0,1-1.146-.617,1.288,1.288,0,0,1-.084-1.28L2.156,45a12.714,12.714,0,0,0,.616-1.551,125.434,125.434,0,0,0,16.306,1.036,125.433,125.433,0,0,0,16.306-1.036A12.714,12.714,0,0,0,36,45l.55,1.154a1.316,1.316,0,0,1-.489,1.684.717.717,0,0,0-.213,1,.748.748,0,0,0,1.023.209,2.739,2.739,0,0,0,1.018-3.512ZM12.213,17.362a1.524,1.524,0,0,1-3.048,0,1.493,1.493,0,0,1,.785-1.307v1.307a.739.739,0,0,0,1.478,0V16.055a1.492,1.492,0,0,1,.785,1.307Zm-.785-6.53V8.959a7.653,7.653,0,0,1,15.3,0v1.873Zm17.566,6.53a1.525,1.525,0,0,1-3.049,0,1.492,1.492,0,0,1,.785-1.307v1.307a.739.739,0,0,0,1.478,0V16.055a1.493,1.493,0,0,1,.785,1.307ZM25.376,29.114a1.868,1.868,0,0,0-1.208-1.739l-8.308-3.23a2.248,2.248,0,0,0-2.416.491,2.146,2.146,0,0,0-.5,2.371l3.291,8.153a1.9,1.9,0,0,0,1.772,1.185h.005a1.9,1.9,0,0,0,1.774-1.176l.959-2.343,3.219,3.159a.749.749,0,0,0,1.045,0,.715.715,0,0,0,0-1.025L21.79,31.8l2.387-.941a1.867,1.867,0,0,0,1.2-1.745Zm-1.75.4L20.2,30.864a.738.738,0,0,0-.248.161.73.73,0,0,0-.164.244l-1.375,3.359a.419.419,0,0,1-.4.267h0a.419.419,0,0,1-.4-.269l-3.291-8.153a.732.732,0,0,1,.171-.812.785.785,0,0,1,.537-.225.8.8,0,0,1,.291.057l8.308,3.23a.423.423,0,0,1,0,.791Zm0,0" transform="translate(0.275 0.25)" fill="#fff" stroke="#fff" stroke-width="0.5"/>
</svg>
