<svg xmlns="http://www.w3.org/2000/svg" width="13.914" height="15.459" viewBox="0 0 13.914 15.459">
  <path id="Trazado_3669" data-name="Trazado 3669" d="M814.1,2721.067h-1.546v1.546H814.1Zm3.091,0h-1.546v1.546h1.546Zm3.092,0H818.74v1.546h1.546Zm1.546-5.411h-.772v-1.546h-1.546v1.546H813.33v-1.546h-1.546v1.546h-.773a1.54,1.54,0,0,0-1.538,1.54v.006l-.008,10.821a1.545,1.545,0,0,0,1.545,1.546h10.822a1.551,1.551,0,0,0,1.547-1.546V2717.2a1.551,1.551,0,0,0-1.547-1.546m0,12.367H811.011v-8.5h10.821Z" transform="translate(-809.465 -2714.11)" fill="#fff"/>
</svg>
