<svg xmlns="http://www.w3.org/2000/svg" width="25.807" height="22" viewBox="0 0 25.807 22">
  <g id="box_3_" data-name="box (3)" transform="translate(0 -31.707)" opacity="0.7">
    <path id="Trazado_10314" data-name="Trazado 10314" d="M6.1,34.175l8.318,1.611c.336.065.7.129.829.146l.456,0,.02,0c.129-.017.493-.081.829-.146l8.318-1.611c.121-.023.487-.094.486-.409s-.369-.382-.49-.4l-8.736-1.605a4.211,4.211,0,0,0-1.289,0L6.1,33.362c-.121.022-.488.09-.49.4S5.979,34.151,6.1,34.175Z" transform="translate(-5.277)" fill="#2e4765"/>
    <path id="Trazado_10315" data-name="Trazado 10315" d="M20.416,112.01v-5.379a.771.771,0,0,0-.78-.8.883.883,0,0,0-.167.016l-7.83,1.516c-.318.062-.84.142-1.16.178,0,0-.07.006-.272.006s-.269-.006-.269-.006h0c-.323-.037-.844-.117-1.163-.178L.947,105.85a.88.88,0,0,0-.167-.016.771.771,0,0,0-.78.8v10.732a1.056,1.056,0,0,0,.832,1.009l8.729,1.69a4,4,0,0,0,1.293,0l3.809-.738a5.691,5.691,0,1,0,5.753-7.315Zm-.3,9.574a3.89,3.89,0,1,1,3.89-3.89A3.895,3.895,0,0,1,20.116,121.584Z" transform="translate(0 -69.677)" fill="#2e4765"/>
    <path id="Trazado_10316" data-name="Trazado 10316" d="M302.144,266.5a.9.9,0,0,0-1.273,0l-.693.693-.693-.693a.9.9,0,0,0-1.273,1.273l.693.693-.693.693a.9.9,0,1,0,1.273,1.273l.693-.693.693.693a.9.9,0,0,0,1.273-1.273l-.693-.693.693-.693A.9.9,0,0,0,302.144,266.5Z" transform="translate(-280.061 -220.455)" fill="#2e4765"/>
  </g>
</svg>
