<svg xmlns="http://www.w3.org/2000/svg" width="31.209" height="27.9" viewBox="0 0 31.209 27.9">
  <g id="Grupo_9726" data-name="Grupo 9726" transform="translate(-1726.69 -1937.837)">
    <path id="Trazado_2995" data-name="Trazado 2995" d="M1752.413,1957.161c0,4.848-3.324,8.576-7.865,8.576h0a8.632,8.632,0,0,1-8.578-8.576v-5.225a8.514,8.514,0,0,1,8.222-8.779h0c4.54,0,8.221,2.463,8.221,3.781Z" fill="#f0a87f"/>
    <path id="Trazado_2996" data-name="Trazado 2996" d="M1740.654,1948.6a2.384,2.384,0,0,0,2.377,1.845c2.031.04,14.868.481,14.868.481l-3.862-3.8-11.265.115Z" fill="#2e4dd4"/>
    <g id="Grupo_9725" data-name="Grupo 9725">
      <g id="Grupo_9724" data-name="Grupo 9724">
        <path id="Trazado_2997" data-name="Trazado 2997" d="M1731.778,1962.6a4.7,4.7,0,0,0,4.16.612,2.4,2.4,0,0,0,2.1-2.324v-6.473c0-4.316,2.6-7.525,6.8-7.525h9.7a14.4,14.4,0,0,0-13.458-9.053,14.227,14.227,0,0,0-14.4,14.05A13.882,13.882,0,0,0,1731.778,1962.6Z" fill="#00bf78"/>
        <g id="Grupo_9723" data-name="Grupo 9723">
          <path id="Trazado_2998" data-name="Trazado 2998" d="M1735.937,1964.3a1.087,1.087,0,0,1-.262-2.142c.848-.212,1.279-.639,1.279-1.269v-6.473c0-5.07,3.245-8.611,7.892-8.611h9.7a1.087,1.087,0,1,1,0,2.173h-9.7c-3.474,0-5.719,2.527-5.719,6.438v6.473a3.468,3.468,0,0,1-2.925,3.378A1.1,1.1,0,0,1,1735.937,1964.3Z" fill="#fff"/>
        </g>
        <circle id="Elipse_18" data-name="Elipse 18" cx="2.938" cy="2.938" r="2.938" transform="translate(1729.127 1951.608)" fill="#30336b"/>
        <path id="Trazado_2999" data-name="Trazado 2999" d="M1733.455,1954.546a1.39,1.39,0,1,1-1.39-1.39A1.391,1.391,0,0,1,1733.455,1954.546Z" fill="#f3f5fa"/>
      </g>
    </g>
  </g>
</svg>
