<svg id="Grupo_8308" data-name="Grupo 8308" xmlns="http://www.w3.org/2000/svg" width="33.177" height="39.447" viewBox="0 0 33.177 39.447">
  <path id="Trazado_10333" data-name="Trazado 10333" d="M146.15,352.1a3.224,3.224,0,0,1-1.982-3.178,3.521,3.521,0,0,1,1.851-3.31c.289-.153.557-.347.834-.522H169.6c.8.62,1.914.894,2.257,2.026a5.027,5.027,0,0,0-1.232,2.352,1.8,1.8,0,0,1-.485.879c-.287.317-.629.6-1.075.429-.4-.156-.267-.567-.262-.892a1.363,1.363,0,0,0-.178-.985c-.431.261-.337.738-.494,1.094a1.509,1.509,0,0,1-1.336,1.03c-1.505.135-1.731-.055-1.685-1.56.006-.184.022-.378-.2-.508-.436.057-.421.462-.488.755a1.589,1.589,0,0,1-1.8,1.326c-2.363-.015-4.726,0-7.089-.007-1.682-.005-1.864-.145-2.432-1.734a.644.644,0,0,0-.291-.4c-.341.28-.219.663-.167,1,.123.8-.251,1.111-.995,1.128-.413.01-.825.016-1.237.009-1.463-.024-1.714-.2-2.217-1.575a2.58,2.58,0,0,0-.167-.416c-.043-.074-.1-.109-.344-.1A2.7,2.7,0,0,1,146.15,352.1Z" transform="translate(-141.653 -345.089)" fill="#e4dbcb"/>
  <path id="Trazado_10334" data-name="Trazado 10334" d="M165.3,494.672c-2.456-1.078-2.924-.725-1.217-3.646a3.556,3.556,0,0,1,1.232-1.551c.444-.283.875-.084,1.294.058a18.838,18.838,0,0,0,6.3.982c2.14-.025,2.845.7,2.862,2.82a17.031,17.031,0,0,0,.147,2.468c-.6.524-1.447-.109-2.043.435h-2.7c-1.188-.227-2.377-.448-3.563-.684a2.68,2.68,0,0,1-.5-.206c-.164-1.1.041-2.217-.125-3.431C165.942,492.636,166.022,493.9,165.3,494.672Z" transform="translate(-156.289 -456.792)" fill="#e4dbcb"/>
  <path id="Trazado_10335" data-name="Trazado 10335" d="M159,434.727a34.476,34.476,0,0,1-3.344-1.713,5.868,5.868,0,0,1-2.569-3.228c.482-.388.928-.067,1.366.09a18.419,18.419,0,0,0,12.837-.066c3.188-1.151,5.47-3.039,5.893-6.619a3.928,3.928,0,0,0,1.815-1.7,1.8,1.8,0,0,1,1.355-.9c2.579-.557,4.338.139,5.1,2.015a3.717,3.717,0,0,1-2.969,5.135c-.425.064-.778.023-.85.623a6.418,6.418,0,0,1-3.55,5.014,19.122,19.122,0,0,1-3.177,1.4,1.642,1.642,0,0,1-1.218.709,18.962,18.962,0,0,1-9.847-.248A1.318,1.318,0,0,1,159,434.727Z" transform="translate(-148.558 -403.413)" fill="#ddac90"/>
  <path id="Trazado_10336" data-name="Trazado 10336" d="M158.012,383.343a19.262,19.262,0,0,0-.032-6.524,1.812,1.812,0,0,1,1.472-.378q9.479-.018,18.957,0a1.774,1.774,0,0,1,1.468.385,4.3,4.3,0,0,0-.225,2.423,14.619,14.619,0,0,0,.163,3.914,3.578,3.578,0,0,1-2.163.292c-1,.024-2,.035-3.006-.012-3.79.041-7.581.051-11.37,0A44.4,44.4,0,0,1,158.012,383.343Z" transform="translate(-152.35 -369.361)" fill="#e4dbca"/>
  <path id="Trazado_10337" data-name="Trazado 10337" d="M175.988,359.508l-21.9-.007a1.483,1.483,0,0,1-1.133-.447c.106-.2.161-.479.326-.582a1.911,1.911,0,0,0,.842-2.344c-.088-.361-.021-.809.472-.875s.569.315.648.719c.321,1.642.414,1.706,2.037,1.707.375,0,.751-.016,1.126,0,.666.035,1.026-.108.714-.893a2.518,2.518,0,0,1-.035-1,.52.52,0,0,1,.475-.541c.365-.04.517.187.617.513.593,1.923.6,1.921,2.52,1.921,2.214,0,4.43-.063,6.64.026,1.119.045,1.591-.4,1.658-1.429.035-.535.2-1.075.8-.945.535.115.614.641.472,1.2-.089.354-.562,1.006.082,1.081.688.081,1.586.485,2.148-.406a2.578,2.578,0,0,0,.35-1.4.525.525,0,0,1,.562-.573c.359.011.52.273.536.607a4.125,4.125,0,0,1-.226,1.818,1.936,1.936,0,0,0,1.576-1.881,1.852,1.852,0,0,1,1.366-1.715A3.662,3.662,0,0,1,175.988,359.508Z" transform="translate(-148.461 -352.043)" fill="#cbc2b2"/>
  <path id="Trazado_10338" data-name="Trazado 10338" d="M174.447,483.892a24.2,24.2,0,0,0,6.4.952,19.146,19.146,0,0,0,5.5-.9,14.21,14.21,0,0,1,3.174,4.3c.322.819.308,1.322-.6,1.6-.6.187-1.053.706-1.7.812a5.584,5.584,0,0,0-1.2-2.911c-.291,1.139.253,2.323-.364,3.382a5.511,5.511,0,0,1-2.012.461c-.54-.08-.464-.5-.465-.865,0-.75.017-1.5-.006-2.249-.035-1.16-.67-1.894-1.8-1.841a21.839,21.839,0,0,1-8.331-1.373A4.507,4.507,0,0,1,174.447,483.892Z" transform="translate(-164.008 -452.578)" fill="#cac1b1"/>
  <path id="Trazado_10339" data-name="Trazado 10339" d="M231.045,406.189l5.084.018a8.826,8.826,0,0,1,.326,3.374,5.521,5.521,0,0,0-1.809,2.062c-.235.584-.661.633-1.166.327-1.552-.731-2-2.235-2.449-3.677C230.83,407.643,230.392,406.88,231.045,406.189Z" transform="translate(-208.664 -392.405)" fill="#36424d"/>
  <path id="Trazado_10340" data-name="Trazado 10340" d="M228.965,501.98V497.9c.859,1.094,2.108,1.985,1.569,3.606A4.768,4.768,0,0,1,228.965,501.98Z" transform="translate(-207.321 -463.429)" fill="#938a7c"/>
  <path id="Trazado_10341" data-name="Trazado 10341" d="M155.4,406.178a7.986,7.986,0,0,0,2.436,5.781c-.051,3.7-2.32,5.678-5.456,6.918a18.128,18.128,0,0,1-13.868.139,2.1,2.1,0,0,0-.966-.249,2.732,2.732,0,0,0-2.254-2.391c-1.908-.467-2.748-2.913-2-4.712.854-2.053,2.854-2.831,5.121-1.992.955-.029,1.337.69,1.761,1.353.559.876.82.908,1.5.144a7.819,7.819,0,0,0,1.809-3.82,2.258,2.258,0,0,1,.334-1.174Z" transform="translate(-133.023 -392.394)" fill="#f3bd99"/>
  <path id="Trazado_10342" data-name="Trazado 10342" d="M162.289,405.95a7.527,7.527,0,0,1-2.243,5.52c-.605.618-1.058.618-1.428-.2a3.753,3.753,0,0,0-1.738-1.82,10.521,10.521,0,0,1,.269-3.3c1.207-.5,2.469-.126,3.7-.226A14.1,14.1,0,0,1,162.289,405.95Z" transform="translate(-151.488 -392.17)" fill="#475563"/>
  <path id="Trazado_10343" data-name="Trazado 10343" d="M172.967,501.55a4.8,4.8,0,0,1,1.89-3.336,11.064,11.064,0,0,1-.074,4.013A5.631,5.631,0,0,1,172.967,501.55Z" transform="translate(-163.956 -463.67)" fill="#aca494"/>
  <path id="Trazado_10344" data-name="Trazado 10344" d="M204.545,502.068a.623.623,0,0,1,.587.689.543.543,0,0,1-.583.556.561.561,0,0,1-.592-.555C203.934,502.344,204.174,502.15,204.545,502.068Z" transform="translate(-187.953 -466.654)" fill="#3f4850"/>
  <path id="Trazado_10345" data-name="Trazado 10345" d="M205.137,513.734a.59.59,0,1,1-1.175.1.59.59,0,1,1,1.175-.1Z" transform="translate(-187.956 -475.253)" fill="#3f4850"/>
  <path id="Trazado_10346" data-name="Trazado 10346" d="M259.486,430.99a1.224,1.224,0,0,1,1.107,1.234,1.157,1.157,0,0,1-1.271,1.234,1.128,1.128,0,0,1-1.125-1.264A1.2,1.2,0,0,1,259.486,430.99Z" transform="translate(-229.957 -411.611)" fill="#f3bd99"/>
  <path id="Trazado_10347" data-name="Trazado 10347" d="M146.668,432.263c-.095.734-.461,1.239-1.192,1.274a1.221,1.221,0,1,1-.078-2.439C146.146,431.081,146.508,431.59,146.668,432.263Z" transform="translate(-141.673 -411.695)" fill="#e6a793"/>
</svg>
