<svg xmlns="http://www.w3.org/2000/svg" width="186.032" height="225.264" viewBox="0 0 186.032 225.264">
  <g id="Grupo_8335" data-name="Grupo 8335" transform="translate(-1581.43 -327)">
    <g id="Grupo_8334" data-name="Grupo 8334">
      <g id="Grupo_8333" data-name="Grupo 8333">
        <g id="Grupo_8332" data-name="Grupo 8332">
          <g id="Grupo_8229" data-name="Grupo 8229" transform="translate(1581.43 327)">
            <g id="Grupo_8140" data-name="Grupo 8140" transform="translate(0 0)" opacity="0.4">
              <path id="Trazado_10160" data-name="Trazado 10160" d="M635.539,124.488H552.07a7.448,7.448,0,0,1,11.732-6.1,16.109,16.109,0,0,1,31.56-3.7,11.235,11.235,0,0,1,7.743-3.08c4.785,0,8.876,4.327,10.515,8.535a18.2,18.2,0,0,1,7.955-1.765C628,118.388,633.472,120.144,635.539,124.488Z" transform="translate(-511.472 -103.079)" fill="#c8d0f3" opacity="0.45"/>
              <g id="Grupo_8137" data-name="Grupo 8137" transform="translate(134.528 48.011)" opacity="0.45">
                <g id="Grupo_8136" data-name="Grupo 8136">
                  <path id="Trazado_10161" data-name="Trazado 10161" d="M683.857,159a5.824,5.824,0,0,0-6.11-3.127c-.441-1.156-2.914-6.327-10.609-1.99-.61-1.541-4.091-9.1-11.807-3.794a8.026,8.026,0,0,0-1.477-3.682c-1.422-1.84-3.594-2.516-6.456-2.006a6.235,6.235,0,0,0-5.151,4.023,10.766,10.766,0,0,0-.313,5.543c-1.582.064-8.547.6-9.274,5.144l-.069.429h51.5Z" transform="translate(-632.591 -144.237)" fill="#2e4dd4"/>
                </g>
              </g>
              <g id="Grupo_8139" data-name="Grupo 8139" transform="translate(0 80.019)" opacity="0.45">
                <g id="Grupo_8138" data-name="Grupo 8138">
                  <path id="Trazado_10162" data-name="Trazado 10162" d="M563.2,186.438a5.194,5.194,0,0,0-5.476-3.127c-.394-1.156-2.609-6.327-9.5-1.99-.547-1.541-3.665-9.1-10.579-3.794a8.605,8.605,0,0,0-1.323-3.682c-1.274-1.84-3.22-2.515-5.785-2.006a5.741,5.741,0,0,0-4.615,4.023,11.964,11.964,0,0,0-.28,5.543c-1.417.064-7.658.6-8.309,5.144l-.062.429h46.146Z" transform="translate(-517.267 -171.675)" fill="#2e4dd4"/>
                </g>
              </g>
            </g>
            <g id="Grupo_8141" data-name="Grupo 8141" transform="translate(7.757 35.621)">
              <path id="Trazado_10163" data-name="Trazado 10163" d="M534.257,224.26A10.34,10.34,0,1,1,544.6,213.92,10.352,10.352,0,0,1,534.257,224.26Zm0-17.553a7.213,7.213,0,1,0,7.213,7.213A7.221,7.221,0,0,0,534.257,206.707Z" transform="translate(-523.917 -121.965)" fill="#2e4dd4"/>
              <path id="Trazado_10165" data-name="Trazado 10165" d="M596.38,173.7a20.043,20.043,0,1,1,20.043-20.043A20.066,20.066,0,0,1,596.38,173.7Zm0-36.959A16.916,16.916,0,1,0,613.3,153.658,16.935,16.935,0,0,0,596.38,136.742Z" transform="translate(-515.188 -133.615)" fill="#2e4dd4"/>
            </g>
            <g id="Grupo_8142" data-name="Grupo 8142" transform="translate(16.26 18.314)">
              <path id="Trazado_10166" data-name="Trazado 10166" d="M570.05,298.771s.112-9.05,9.05-9.05c0,0-9.05-.112-9.05-9.05,0,0-.112,9.05-9.05,9.05C561,289.721,570.05,289.833,570.05,298.771Z" transform="translate(-526.245 -91.821)" fill="#f9ca24"/>
              <path id="Trazado_10167" data-name="Trazado 10167" d="M540.256,153.72s.111-9.049,9.049-9.049c0,0-9.049-.112-9.049-9.05,0,0-.112,9.05-9.05,9.05C531.206,144.671,540.256,144.783,540.256,153.72Z" transform="translate(-531.206 -115.975)" fill="#f9ca24"/>
              <path id="Trazado_10169" data-name="Trazado 10169" d="M663.6,239.294s.065-5.313,5.314-5.313c0,0-5.314-.065-5.314-5.315,0,0-.065,5.315-5.315,5.315C658.289,233.981,663.6,234.046,663.6,239.294Z" transform="translate(-510.044 -100.481)" fill="#f9ca24"/>
              <path id="Trazado_10170" data-name="Trazado 10170" d="M640.867,129.407s.065-5.315,5.315-5.315c0,0-5.315-.065-5.315-5.313,0,0-.065,5.313-5.313,5.313C635.554,124.092,640.867,124.159,640.867,129.407Z" transform="translate(-513.83 -118.779)" fill="#f9ca24"/>
              <path id="Trazado_10171" data-name="Trazado 10171" d="M555.152,169.4s.065-5.313,5.313-5.313c0,0-5.313-.067-5.313-5.315,0,0-.067,5.315-5.315,5.315C549.837,164.089,555.152,164.154,555.152,169.4Z" transform="translate(-528.104 -112.119)" fill="#f9ca24"/>
            </g>
          </g>
        </g>
      </g>
    </g>
  </g>
</svg>
