<svg xmlns="http://www.w3.org/2000/svg" width="22.011" height="23.652" viewBox="0 0 22.011 23.652">
  <g id="Grupo_10688" data-name="Grupo 10688" transform="translate(-470.095 -3758.666)">
    <path id="Trazado_3494" data-name="Trazado 3494" d="M492.106,3773.56c-.028.167-.046.338-.086.5a3.889,3.889,0,0,1-1.873,2.461,4.612,4.612,0,0,1-3.3.606.168.168,0,0,0-.2.087c-.489.692-.967,1.392-1.483,2.064a12.686,12.686,0,0,1-.957,1.027.274.274,0,0,1-.18.072q-2.795.006-5.589,0c-.505,0-1.01,0-1.516,0a.452.452,0,0,1-.206-.054,7.022,7.022,0,0,1-2.566-2.478,12.4,12.4,0,0,1-1.563-3.933,16.072,16.072,0,0,1-.429-3.266,1.56,1.56,0,0,1,.729-1.423,1.019,1.019,0,0,1,.57-.151h13.793a1.29,1.29,0,0,1,1.344.968.336.336,0,0,0,.354.273,3.74,3.74,0,0,1,2.013.778,2.879,2.879,0,0,1,1.122,2.052.749.749,0,0,0,.02.094Zm-18.1-3.043c0,.044,0,.073,0,.1a15.277,15.277,0,0,0,.327,3.263,10.307,10.307,0,0,0,.991,2.826,5.87,5.87,0,0,0,2.113,2.3c.063.038.13.072.217.119-.153-.323-.3-.615-.432-.911a15.8,15.8,0,0,1-1.465-4.992,6.463,6.463,0,0,1,.088-2.03c.05-.228.128-.45.2-.681Zm14.661,1.129a10.134,10.134,0,0,1-1.26,4.211c.253,0,.472.016.688,0a2.728,2.728,0,0,0,2.06-1.139,1.843,1.843,0,0,0-.607-2.8A2.277,2.277,0,0,0,488.672,3771.646Z" fill="#f88c5a"/>
    <path id="Trazado_3495" data-name="Trazado 3495" d="M470.1,3780.97a.5.5,0,0,1,.157-.054q1.582,0,3.166,0h16.66a1.227,1.227,0,0,1-.954,1.374,2.458,2.458,0,0,1-.4.028q-8.545,0-17.092,0a2.177,2.177,0,0,1-.8-.12,1.07,1.07,0,0,1-.7-.866c-.007-.039-.017-.078-.026-.117Z" fill="#f88c5a"/>
    <path id="Trazado_3496" data-name="Trazado 3496" d="M482.812,3758.666a7.776,7.776,0,0,0-.574.8,1.952,1.952,0,0,0,0,1.834,10.112,10.112,0,0,0,.861,1.375c.245.365.494.73.7,1.117a2.427,2.427,0,0,1-.26,2.8,7.814,7.814,0,0,1-1.677,1.559.742.742,0,0,1-.183.1c.02-.032.04-.065.061-.1a6.461,6.461,0,0,0,.869-1.634,2.239,2.239,0,0,0-.825-2.719,4.664,4.664,0,0,0-.422-.312,1.586,1.586,0,0,1-.713-1.01,3.758,3.758,0,0,1-.068-1.754,2.463,2.463,0,0,1,1.889-1.993l.266-.073Z" fill="#f88c5a"/>
    <path id="Trazado_3497" data-name="Trazado 3497" d="M478.529,3768.237c.051-.077.1-.153.154-.23a4.811,4.811,0,0,0,.621-1.254,1.746,1.746,0,0,0-.614-2.02c-.17-.139-.348-.269-.528-.394a1.058,1.058,0,0,1-.407-.521,2.853,2.853,0,0,1,.015-2.156,2.062,2.062,0,0,1,1.666-1.215l-.1.116a2.123,2.123,0,0,0-.524.953,1.575,1.575,0,0,0,.17,1.1c.18.332.4.645.6.965.23.364.487.715.688,1.094a1.919,1.919,0,0,1-.171,2.141,6.3,6.3,0,0,1-1.543,1.442Z" fill="#f88c5a"/>
  </g>
</svg>
