<svg xmlns="http://www.w3.org/2000/svg" xmlns:xlink="http://www.w3.org/1999/xlink" width="10.518" height="10.518" viewBox="0 0 10.518 10.518">
  <defs>
    <clipPath id="clip-path">
      <rect id="Rectángulo_2178" data-name="Rectángulo 2178" width="10.518" height="10.518" transform="translate(1707.243 2828.578)" fill="none"/>
    </clipPath>
  </defs>
  <g id="Grupo_9424" data-name="Grupo 9424" transform="translate(-1707.243 -2828.578)" opacity="0.7">
    <g id="Grupo_9423" data-name="Grupo 9423">
      <g id="Grupo_9422" data-name="Grupo 9422" clip-path="url(#clip-path)">
        <path id="Trazado_2799" data-name="Trazado 2799" d="M1716.087,2837.183h-7.169a.239.239,0,0,0-.239.239v.7a.975.975,0,0,0,.974.977h5.7a.976.976,0,0,0,.975-.975v-.7A.239.239,0,0,0,1716.087,2837.183Z" fill="#2e4765"/>
        <path id="Trazado_2800" data-name="Trazado 2800" d="M1715.131,2829.533a2.583,2.583,0,0,0-.456.046,2.866,2.866,0,0,0-5.042,1.867.239.239,0,0,1-.478,0,3.3,3.3,0,0,1,.354-1.488.24.24,0,0,0-.272-.339,2.623,2.623,0,0,0-.554,4.887l0,1.959a.24.24,0,0,0,.239.24h7.17a.239.239,0,0,0,.238-.238V2834.5a2.628,2.628,0,0,0-1.2-4.969m-4.39,5.683a.24.24,0,0,1-.337-.033,3.354,3.354,0,0,1-.77-1.586.239.239,0,0,1,.478,0,2.906,2.906,0,0,0,.663,1.283.239.239,0,0,1-.034.336m2-.184a.239.239,0,0,1-.478.02V2833.6a.239.239,0,1,1,.478-.02v1.455Zm1.858.151a.239.239,0,0,1-.37-.3,2.918,2.918,0,0,0,.663-1.283.239.239,0,0,1,.478,0A3.345,3.345,0,0,1,1714.6,2835.183Z" fill="#2e4765"/>
      </g>
    </g>
  </g>
</svg>
