<svg xmlns="http://www.w3.org/2000/svg" width="24.676" height="22.923" viewBox="0 0 24.676 22.923">
  <g id="motorcycle" transform="translate(0 -15.088)" opacity="0.7">
    <path id="Trazado_10312" data-name="Trazado 10312" d="M24.04,123.26a2.441,2.441,0,0,0-.066-1.111c-.721-2.6-2.879-7.916-4.672-10.107a1.3,1.3,0,0,0-1.9,0,1.338,1.338,0,0,0-.387.828.942.942,0,0,0-.516-.246s-4.548-.567-4.6-.56H9.823a.77.77,0,0,0-.871.871v6.64H7.434v-7.12a.64.64,0,0,0-.639-.639H.639a.64.64,0,0,0-.639.639s0,10,0,10.645a1.345,1.345,0,0,0,1.345,1.345h1.32a3.635,3.635,0,1,0,7.059,0h4.068v.891a1.279,1.279,0,0,0,1.278,1.278H15.1a1.269,1.269,0,0,0,1.268-1.281l-.009-.888h1.156a3.635,3.635,0,1,0,6.528-1.185Zm-3,.679a1.372,1.372,0,1,1-1.372,1.372A1.373,1.373,0,0,1,21.041,123.939ZM7.569,125.311A1.372,1.372,0,1,1,6.2,123.939,1.373,1.373,0,0,1,7.569,125.311Zm8.739-5.54A1.292,1.292,0,0,0,15.02,118.5H12.894v-4.342l1.04.128a.865.865,0,0,0,.844.68h3.639l.282,2.35-2.385,3.122Z" transform="translate(0 -90.934)" fill="#2e4765"/>
    <path id="Trazado_10313" data-name="Trazado 10313" d="M141.178,20.2a2.556,2.556,0,0,0,2.5-3.079l.561-.011a1.009,1.009,0,0,0,.838-.541l.188-.4a.524.524,0,0,0-.5-.781l-2.376.006a2.555,2.555,0,1,0-1.217,4.8Z" transform="translate(-130.571)" fill="#2e4765"/>
  </g>
</svg>
