<svg xmlns="http://www.w3.org/2000/svg" width="27.324" height="22.104" viewBox="0 0 27.324 22.104">
  <g id="Grupo_9665" data-name="Grupo 9665" transform="translate(-1496.915 -2123.654)">
    <path id="Trazado_2930" data-name="Trazado 2930" d="M1502.612,2135.357a1.909,1.909,0,0,0-1.43-1.179,5.176,5.176,0,0,0-1.059-.125c-1-.016-2.005,0-3.008,0h-.2v-10.394h11.7v.221q0,4.389,0,8.778c0,.108.012.165.14.2a2.426,2.426,0,0,1,1.747,1.9,2.576,2.576,0,0,1-.078,1.275,3.39,3.39,0,0,0-.062,1.463,1.163,1.163,0,0,0,1.159,1.086,3.219,3.219,0,0,0,2.1-.434,3.094,3.094,0,0,0,1.263-1.7,7.15,7.15,0,0,0,.356-2.572c-.012-.561-.059-1.121-.091-1.7l1.266-.16c.027.261.058.506.077.752a10.151,10.151,0,0,1-.34,4,4.416,4.416,0,0,1-1.844,2.487,4.517,4.517,0,0,1-2.572.645,3.17,3.17,0,0,1-1.245-.259,2.438,2.438,0,0,1-1.423-1.94,4.866,4.866,0,0,1,.129-2.153,1.211,1.211,0,0,0-.119-.9,1.074,1.074,0,0,0-1.04-.595c-1.553-.008-3.107,0-4.676,0a5.581,5.581,0,0,1,.3.5c.11.233.19.48.294.717a.223.223,0,0,0,.133.125,4.921,4.921,0,0,1,3.7,2.557,8.873,8.873,0,0,1,.787,1.749l-1.21.4c-.174-.392-.326-.778-.512-1.148a4.249,4.249,0,0,0-1.651-1.852,3.557,3.557,0,0,0-1.881-.452,4.479,4.479,0,0,0-2,.457,4.039,4.039,0,0,0-1.78,1.892,7.1,7.1,0,0,0-.624,2.119.49.49,0,0,0,0,.082h8.891q4.122,0,8.242,0a.721.721,0,0,0,.347-.1,53.841,53.841,0,0,1,5.3-2.686c.027-.012.054-.027.084-.043a2.694,2.694,0,0,0-3.579.645l-.992-.831a4.681,4.681,0,0,1,2.4-1.464,8.946,8.946,0,0,0-.448-1.959,12.052,12.052,0,0,0-1.6-3.1.461.461,0,0,0-.436-.224,1.881,1.881,0,0,1-1.8-1.078,1.75,1.75,0,0,1-.2-.973.167.167,0,0,0-.119-.192c-.712-.35-1.422-.706-2.145-1.066l.584-1.165c.327.162.64.317.952.473q.6.3,1.2.6c.065.033.115.058.186-.006a1.773,1.773,0,0,1,1.173-.481c.676-.016,1.352,0,2.039,0v1.286c-.054,0-.111.007-.168.007-.574,0-1.149,0-1.723,0a.638.638,0,0,0-.626.384.621.621,0,0,0,.1.7.637.637,0,0,0,.518.22c.547,0,1.095,0,1.642,0h.264c0,.3.016.594,0,.883a1.346,1.346,0,0,0,.227.832,12.3,12.3,0,0,1,1.585,4.115c.039.2.064.406.092.609.011.08.04.111.129.126a3.357,3.357,0,0,1,2.36,1.445c.159.242.276.512.42.784l-.587.239a50.064,50.064,0,0,0-5.323,2.567c-.406.227-.8.465-1.21.692a.477.477,0,0,1-.227.06q-4.519.006-9.039,0c-.127,0-.179.021-.211.163a3.9,3.9,0,0,1-7.628.037c-.014-.063-.029-.125-.046-.2h-2c0-.26-.012-.508,0-.755a8.567,8.567,0,0,1,.781-3.24,5.164,5.164,0,0,1,2.93-2.787C1501.7,2135.562,1502.16,2135.477,1502.612,2135.357Zm4.694-10.406h-3.9v3.894h-1.3v-3.894h-3.9v7.789h9.094Zm-6.4,17.559a2.584,2.584,0,0,0,2.781,1.937c1.009-.085,2.2-1.114,2.213-1.937Z" fill="#fff"/>
    <path id="Trazado_2931" data-name="Trazado 2931" d="M1516.766,2143.439l1.172-.525a2.594,2.594,0,0,0,1.8,1.477,2.53,2.53,0,0,0,1.907-.3,2.618,2.618,0,0,0,.969-3.481l1.14-.622a3.914,3.914,0,0,1-3.765,5.753A3.9,3.9,0,0,1,1516.766,2143.439Z" fill="#fff"/>
  </g>
</svg>
