<svg xmlns="http://www.w3.org/2000/svg" width="29.03" height="19.473" viewBox="0 0 29.03 19.473">
  <g id="Grupo_11060" data-name="Grupo 11060" transform="translate(-86.009 -2845.007)">
    <path id="Trazado_3662" data-name="Trazado 3662" d="M105.26,2864.48a9.737,9.737,0,1,1,9.779-9.707A9.744,9.744,0,0,1,105.26,2864.48Zm.032-1.335a8.4,8.4,0,1,0-8.4-8.387A8.407,8.407,0,0,0,105.292,2863.145Z" fill="#fff"/>
    <g id="Grupo_11059" data-name="Grupo 11059">
      <path id="Trazado_3663" data-name="Trazado 3663" d="M86.009,2854.211a.975.975,0,0,1,.913-.432c1.97.013,3.941.006,5.911.007a1.636,1.636,0,0,1,.4.027.659.659,0,0,1,0,1.277,1.873,1.873,0,0,1-.437.028c-1.944,0-3.888-.007-5.831.007a1,1,0,0,1-.952-.434Z" fill="#fff"/>
      <path id="Trazado_3664" data-name="Trazado 3664" d="M91.543,2850.079c-.48,0-.96.008-1.44,0a.667.667,0,1,1,.018-1.327q1.419-.012,2.839,0c.483,0,.777.271.771.673s-.3.649-.789.657C92.476,2850.085,92.009,2850.079,91.543,2850.079Z" fill="#fff"/>
      <path id="Trazado_3665" data-name="Trazado 3665" d="M91.559,2858.826c.48,0,.96-.008,1.44,0a.667.667,0,1,1-.016,1.326q-1.438.012-2.878,0a.659.659,0,0,1-.732-.67.669.669,0,0,1,.747-.656C90.6,2858.819,91.08,2858.826,91.559,2858.826Z" fill="#fff"/>
    </g>
    <path id="Trazado_3666" data-name="Trazado 3666" d="M103.768,2852.479a1.5,1.5,0,0,0,1.311,1.518c.3.044.614.049.909.122a2.85,2.85,0,0,1,2.169,2.612,2.811,2.811,0,0,1-1.795,2.8c-.406.146-.545.325-.5.729a.565.565,0,0,1-.394.664.835.835,0,0,1-.657-.088.946.946,0,0,1-.261-.659.642.642,0,0,0-.459-.7,2.756,2.756,0,0,1-1.669-2.4.7.7,0,0,1,.631-.854c.395-.023.669.262.713.742a1.524,1.524,0,0,0,3.04.037,1.546,1.546,0,0,0-1.372-1.636,5.188,5.188,0,0,1-1.493-.362,2.653,2.653,0,0,1-1.513-2.652,2.724,2.724,0,0,1,1.767-2.5c.27-.115.375-.245.342-.522a1.346,1.346,0,0,1,.015-.358.66.66,0,0,1,.665-.571.6.6,0,0,1,.628.6c-.048.534.2.721.656.919a2.722,2.722,0,0,1,1.647,2.332.729.729,0,0,1-.61.914c-.4.037-.683-.261-.73-.766a1.522,1.522,0,0,0-3.042.08Z" fill="#fff"/>
  </g>
</svg>
