<svg xmlns="http://www.w3.org/2000/svg" width="28.53" height="26.989" viewBox="0 0 28.53 26.989">
  <g id="Grupo_9662" data-name="Grupo 9662" transform="translate(-1496.111 -2230.413)">
    <path id="Trazado_2925" data-name="Trazado 2925" d="M1496.111,2249.671c.388-1.082,1.316-.884,2.161-.888.023-.1.041-.193.062-.282a1.034,1.034,0,0,1,.988-.831q.864-.022,1.728,0a1.029,1.029,0,0,1,.976.81c.021.08.04.161.063.252a1.1,1.1,0,0,0,.643-.555c.263-.49.515-.987.76-1.487a.758.758,0,0,0,.054-.323q.006-2.509,0-5.017c0-.646.265-.911.91-.911h8.573c-.059-.107-.093-.178-.135-.244a6.386,6.386,0,0,1,4.376-9.727,9.522,9.522,0,0,1,1.664-.037.422.422,0,0,1,.465.443.442.442,0,0,1-.545.387,5.706,5.706,0,0,0-2.068.177,5.551,5.551,0,0,0,.187,10.733,5.551,5.551,0,0,0,3.614-10.439c-.033-.016-.068-.03-.1-.047-.274-.144-.369-.362-.256-.588a.417.417,0,0,1,.621-.159,8.714,8.714,0,0,1,1.316.773,6.4,6.4,0,0,1-1.271,10.868.325.325,0,0,0-.206.363q0,6.368,0,12.736c0,.74-.27,1.013-1,1.013h-17.686c-.232.6-.771.747-1.416.705-.287-.018-.576,0-.864,0-.962,0-1.2-.177-1.472-1.122-.23,0-.47-.013-.708,0a1.268,1.268,0,0,1-1.438-.916v-3.4c.152-.167.309-.329.567-.226s.282.319.273.554c0,.074,0,.148,0,.223q0,1.254,0,2.508c0,.18.032.372.231.388.364.03.732.009,1.088.009v-5.794c-.34,0-.655,0-.97,0a.321.321,0,0,0-.347.351c0,.1-.005.2,0,.306.012.24-.034.457-.287.546s-.421-.062-.552-.261Zm23.738-6.641-2.394.139v.26c0,.826,0,1.653,0,2.48a1.049,1.049,0,0,1-.051.354.331.331,0,0,1-.421.228.817.817,0,0,1-.344-.307c-.049-.071-.021-.2-.021-.3,0-.9-.008-1.8,0-2.7a.286.286,0,0,0-.24-.331,5.309,5.309,0,0,1-2.214-1.238,1.341,1.341,0,0,0-1.22-.306v.31q0,1.672,0,3.344a.652.652,0,0,1-.325.658.626.626,0,0,1-.717-.133c-.4-.315-.813-.619-1.2-.947a.261.261,0,0,0-.4,0c-.441.356-.883.71-1.347,1.035a.543.543,0,0,1-.867-.375,1.669,1.669,0,0,1-.027-.331q0-1.631,0-3.261c0-.1,0-.2,0-.305h-3.634v4.282a3.788,3.788,0,0,1,.762.265,1.723,1.723,0,0,1,.626,2.248c-.112.238-.235.47-.37.739h.33q2.368,0,4.737,0a1.327,1.327,0,0,1,1.418,1.079,4.01,4.01,0,0,1,.006.678,1.38,1.38,0,0,1,1.619,1.015c.173.616-.072,1.04-.779,1.513a3.552,3.552,0,0,1,.033.7,1.267,1.267,0,0,1-1.35,1.1c-.462.01-.924,0-1.378,0v.9h6.544c0-.293,0-.561,0-.83q0-3.554,0-7.106c0-.341.14-.516.4-.524s.428.18.436.528c0,.074,0,.149,0,.223v7.714h2.394Zm-14.268,12.79v.029c1.05,0,2.1,0,3.149,0a.471.471,0,0,0,.524-.43c.018-.252-.159-.43-.474-.468a2.611,2.611,0,0,0-.306-.015c-.483,0-.966,0-1.449,0-.322,0-.491-.148-.5-.4s.169-.419.5-.435c.065,0,.13,0,.2,0l4.068,0a1.936,1.936,0,0,0,.306-.013.414.414,0,0,0,.383-.438.424.424,0,0,0-.382-.444,1.586,1.586,0,0,0-.277-.009l-3.79,0a1.153,1.153,0,0,1-.276-.018.412.412,0,0,1,.014-.809,1.223,1.223,0,0,1,.249-.011l4.57,0a.71.71,0,0,0,.3-.022c.123-.062.3-.158.314-.262a.6.6,0,0,0-.127-.468.745.745,0,0,0-.481-.146c-1.486-.01-2.972,0-4.458-.005a1.5,1.5,0,0,1-.385-.039.406.406,0,0,1,.044-.785,1.84,1.84,0,0,1,.3-.018c.938,0,1.876,0,2.814,0a1.841,1.841,0,0,0,.332-.026.369.369,0,0,0,.342-.405.764.764,0,0,0-.285-.426.738.738,0,0,0-.4-.058c-1.644,0-3.288,0-4.931,0a.81.81,0,0,1-.771-1.258c.134-.275.282-.544.393-.828a.847.847,0,0,0-.226-.944c-.2-.206-.309-.186-.439.066-.279.545-.555,1.091-.833,1.637a2.156,2.156,0,0,1-1.286,1.2c-.2.061-.24.166-.239.356.006,1.829,0,3.659,0,5.488,0,.4,0,.418.39.423C1503.5,2255.827,1504.541,2255.82,1505.581,2255.82Zm-4.348-3.277q0-1.826,0-3.649c0-.32-.072-.389-.4-.39-.445,0-.891.005-1.337,0-.26-.006-.371.1-.371.364q0,3.661,0,7.325c0,.261.111.369.37.364.436-.009.872,0,1.309,0,.381,0,.425-.048.426-.441Zm7.674-7.976,1.094-.852c.41-.319.6-.319,1.01,0,.3.235.6.471.9.7a1.8,1.8,0,0,0,.177.106v-3.221h-3.179Z" fill="#fff"/>
    <path id="Trazado_2926" data-name="Trazado 2926" d="M1517.19,2238.576l2.782-3.121c.334-.374.665-.751,1-1.123.219-.243.463-.287.656-.126s.2.429-.032.685q-1.878,2.115-3.763,4.223a.809.809,0,0,1-1.288.012c-.544-.6-1.076-1.207-1.608-1.814a.431.431,0,0,1-.024-.643.439.439,0,0,1,.656.1c.472.525.938,1.055,1.407,1.583C1517.038,2238.417,1517.1,2238.483,1517.19,2238.576Z" fill="#fff"/>
  </g>
</svg>
