<svg xmlns="http://www.w3.org/2000/svg" width="15.987" height="15.986" viewBox="0 0 15.987 15.986">
  <path id="Trazado_3302" data-name="Trazado 3302" d="M379.938,3716.246a7.993,7.993,0,1,1-8.011,7.987A7.975,7.975,0,0,1,379.938,3716.246Zm.788,5.631c0-.5,0-1,0-1.494,0-.578-.322-.957-.8-.959s-.807.378-.808.952c0,1.238.007,2.476,0,3.714a.932.932,0,0,0,.51.905c1.076.609,2.142,1.235,3.214,1.851.536.308,1.014.221,1.255-.219.231-.423.068-.864-.445-1.164-.859-.5-1.713-1.013-2.586-1.488a.568.568,0,0,1-.339-.6C380.74,3722.874,380.726,3722.375,380.726,3721.877Z" transform="translate(-371.927 -3716.246)" fill="#00bf78"/>
</svg>
