<svg xmlns="http://www.w3.org/2000/svg" width="20.345" height="19.967" viewBox="0 0 20.345 19.967">
  <g id="Grupo_10670" data-name="Grupo 10670" transform="translate(-765.386 -3714.948)">
    <path id="Trazado_3446" data-name="Trazado 3446" d="M765.386,3725.407c.02-.2.038-.391.06-.586a9.042,9.042,0,0,1,7.17-7.835,8.962,8.962,0,0,1,5.556.613c.031.013.072.052.073.081.016.3.025.6.036.917h-.127q-1.194.011-2.387.022a2,2,0,0,0-1.192.389,1.141,1.141,0,0,0-.257.238.39.39,0,0,1-.342.176,4.451,4.451,0,0,0-1.125.171,6.453,6.453,0,0,0-.63,12.324,6.49,6.49,0,0,0,8.429-4.286c.057-.2.1-.409.14-.616a.542.542,0,0,1,.294-.4,1.769,1.769,0,0,0,.919-1.254,4.534,4.534,0,0,0,.045-.765c.007-.682.005-1.363.006-2.045v-.1c.183,0,.358,0,.532,0,.088,0,.2-.012.258.033s.063.155.092.236a9.181,9.181,0,0,1,.528,2.371,8.773,8.773,0,0,1-.408,3.51,8.944,8.944,0,0,1-4.6,5.365,8.828,8.828,0,0,1-3.3.91l-.474.038h-.5c-.048-.006-.1-.015-.143-.017a8.792,8.792,0,0,1-2.742-.553,9.036,9.036,0,0,1-5.858-7.491c-.023-.2-.04-.4-.06-.6Z" fill="#f85454"/>
    <path id="Trazado_3447" data-name="Trazado 3447" d="M779.044,3719.36v-.142c0-.951,0-1.9.006-2.854a5.794,5.794,0,0,1,.041-.631.525.525,0,0,1,.093-.249,1.193,1.193,0,0,1,1.524-.41.938.938,0,0,1,.555.8c.045.464.068.931.078,1.4.013.65,0,1.3.005,1.951v.134c.045,0,.082.006.119.006.854.009,1.709.011,2.563.029.328.007.655.043.981.08a.652.652,0,0,1,.461.306,1.271,1.271,0,0,1,.243.978.786.786,0,0,1-.2.415c-.078.083-.162.16-.247.236a.935.935,0,0,1-.662.244c-1.035,0-2.069.011-3.1.018h-.15v.115c-.013.989-.025,1.979-.041,2.968a3.3,3.3,0,0,1-.03.445,1.138,1.138,0,0,1-2.1.339,1.231,1.231,0,0,1-.127-.592c-.03-1.048-.055-2.1-.082-3.144,0-.037,0-.075,0-.128h-.138q-1.7-.018-3.4-.037a.38.38,0,0,1-.162-.05,1.749,1.749,0,0,1-.2-.134,1.123,1.123,0,0,1-.074-1.8,3.279,3.279,0,0,1,.311-.224.221.221,0,0,1,.117-.028l3.477-.031Z" fill="#f85454"/>
    <path id="Trazado_3448" data-name="Trazado 3448" d="M769.936,3724.185a.693.693,0,0,1,.6-.657.53.53,0,0,1,.268.065c.366.187.731.376,1.088.579q1.371.778,2.732,1.572a.3.3,0,0,0,.252.029c.591-.156,1.183-.307,1.776-.457a1.337,1.337,0,0,1,.246-.035.649.649,0,0,1,.667.587.715.715,0,0,1-.393.6c-.479.144-.96.283-1.444.41-.347.091-.7.157-1.051.238a.342.342,0,0,1-.258-.037c-.757-.424-1.519-.838-2.27-1.272-.631-.365-1.25-.75-1.87-1.134a.933.933,0,0,1-.249-.244A.968.968,0,0,1,769.936,3724.185Z" fill="#f85454"/>
  </g>
</svg>
