<svg xmlns="http://www.w3.org/2000/svg" width="30.932" height="25.374" viewBox="0 0 30.932 25.374">
  <g id="terreno" transform="translate(0 -0.5)">
    <path id="Trazado_10213" data-name="Trazado 10213" d="M29.12,1.467H8.337A1.814,1.814,0,0,0,6.525,3.279V6.17L1.031.677a.6.6,0,0,0-.854.854L7.293,8.647l-3.76,3.76-2.5-2.5a.6.6,0,1,0-.854.855L5.2,15.782v.544a6.24,6.24,0,0,0,1.327,3.837v3.9a1.814,1.814,0,0,0,1.812,1.812H29.12a1.814,1.814,0,0,0,1.812-1.812V10.286a.6.6,0,0,0-1.208,0V24.062a.6.6,0,0,1-.6.6H16.507c.025-.022.05-.046.074-.07a1.732,1.732,0,0,0,.358-.521,1.745,1.745,0,0,0,2.341-2.34,1.745,1.745,0,0,0,.52-2.826L17.72,16.829a1.922,1.922,0,0,0,1.693-.781l.02-.027a1.962,1.962,0,0,0-.408-2.726c-.541-.4-1.274-.949-2.179-1.626A7.433,7.433,0,0,0,12.421,10.2h-.008l-1.86,0-2.82-2.82v-4.1a.6.6,0,0,1,.6-.6h6.307V8.836a.6.6,0,0,0,1.031.427L16.988,7.95,18.3,9.263a.6.6,0,0,0,.854,0L20.468,7.95l1.313,1.313a.6.6,0,0,0,1.032-.427V2.675H29.12a.6.6,0,0,1,.6.6V5.453a.6.6,0,1,0,1.208,0V3.279A1.814,1.814,0,0,0,29.12,1.467ZM7.733,24.062V21.434l1.974,1.974h0l1.257,1.257H8.337a.6.6,0,0,1-.6-.6Zm4.682-12.657h.007a6.217,6.217,0,0,1,3.7,1.231c.906.678,1.64,1.226,2.182,1.628a.75.75,0,0,1,.153,1.043l-.02.027a.713.713,0,0,1-.96.178l-2.318-1.495a.7.7,0,0,0-.874,1.084l4.662,4.662a.536.536,0,0,1-.711.8l-2.34-2.34a.6.6,0,0,0-.051-.045l-.239-.239a.6.6,0,0,0-.855.854l2.582,2.582c.027.027.055.052.083.077l.682.682a.536.536,0,1,1-.758.758l-.682-.682c-.025-.028-.05-.055-.077-.082l-2.3-2.3a.645.645,0,0,0-.051-.045L14,19.55a.6.6,0,0,0-.854.854l2.627,2.627a.536.536,0,0,1-.8.711l-.763-.763c-.025-.028-.05-.056-.077-.083l-1.453-1.453a.644.644,0,0,0-.051-.045l-.239-.239a.6.6,0,0,0-.854.855L13.316,23.8a.536.536,0,0,1-.8.711L9.352,21.344h0L7.866,19.858a5.018,5.018,0,0,1-1.46-3.531v-.878l4.042-4.042ZM5.637,14.511l-1.25-1.249L8.147,9.5l1.25,1.25ZM21.6,7.377,20.9,6.669a.6.6,0,0,0-.854,0L18.728,7.981,17.415,6.669a.6.6,0,0,0-.854,0l-.709.709v-4.7H21.6Zm0,0" transform="translate(0 0)" fill="#66d8ad"/>
    <path id="Trazado_10214" data-name="Trazado 10214" d="M378.471,299.656H374.6a.6.6,0,0,0,0,1.208h3.867a.6.6,0,0,0,0-1.208Zm0,0" transform="translate(-351.405 -281.083)" fill="#66d8ad"/>
    <path id="Trazado_10215" data-name="Trazado 10215" d="M397.89,340.9h-2.618a.6.6,0,1,0,0,1.208h2.618a.6.6,0,0,0,0-1.208Zm0,0" transform="translate(-370.824 -319.837)" fill="#66d8ad"/>
    <path id="Trazado_10216" data-name="Trazado 10216" d="M355.272,340.9a.6.6,0,1,0,.427.177A.608.608,0,0,0,355.272,340.9Zm0,0" transform="translate(-333.241 -319.833)" fill="#66d8ad"/>
    <path id="Trazado_10217" data-name="Trazado 10217" d="M492.6,112.488a.6.6,0,1,0,.427.177A.609.609,0,0,0,492.6,112.488Zm0,0" transform="translate(-462.276 -105.222)" fill="#66d8ad"/>
  </g>
</svg>
