<svg xmlns="http://www.w3.org/2000/svg" width="27.07" height="34.836" viewBox="0 0 27.07 34.836">
  <path id="Trazado_2304" data-name="Trazado 2304" d="M3800.693,1920.389l-.382-.8a7.774,7.774,0,0,1-.49-1.331.114.114,0,0,0-.008-.03,7.651,7.651,0,0,1-.244-1.563l-.933-18.006a2.5,2.5,0,0,0-2.52-2.351h-2.141v-1.3a6.336,6.336,0,0,0-12.67,0v1.3h-2.141a2.5,2.5,0,0,0-2.52,2.351l-.07,1.312a.513.513,0,0,0,1.024.052l.07-1.313a1.485,1.485,0,0,1,1.5-1.4h2.141v1.543a2.082,2.082,0,1,0,1.026,0v-1.544h10.616v1.544a2.082,2.082,0,1,0,1.026,0v-1.544h2.142a1.485,1.485,0,0,1,1.5,1.4l.939,18.008a8.68,8.68,0,0,0,.154,1.242,88.479,88.479,0,0,1-22.12,0,8.785,8.785,0,0,0,.153-1.242l.742-14.356a.513.513,0,0,0-1.024-.051l-.744,14.356a7.729,7.729,0,0,1-.243,1.563.186.186,0,0,1-.008.029,7.667,7.667,0,0,1-.491,1.331l-.381.8a1.891,1.891,0,0,0,.123,1.855,1.969,1.969,0,0,0,1.659.9h20.916a.5.5,0,0,0,0-1.007h-20.916a.93.93,0,0,1-.795-.428.892.892,0,0,1-.058-.888l.381-.8a8.646,8.646,0,0,0,.427-1.076,89.379,89.379,0,0,0,22.63,0,8.8,8.8,0,0,0,.427,1.076l.382.8a.912.912,0,0,1-.339,1.168.5.5,0,0,0-.152.687l0,.007a.518.518,0,0,0,.71.145,1.9,1.9,0,0,0,.706-2.437Zm-17.817-19.551a1.058,1.058,0,0,1-2.116,0,1.035,1.035,0,0,1,.545-.907v.907a.513.513,0,0,0,1.026,0v-.907A1.034,1.034,0,0,1,3782.876,1900.838Zm-.545-4.531v-1.3a5.31,5.31,0,0,1,10.616,0v1.3Zm12.189,4.531a1.058,1.058,0,0,1-2.116,0,1.034,1.034,0,0,1,.545-.907v.907a.513.513,0,0,0,1.026,0v-.907a1.034,1.034,0,0,1,.544.907Zm-2.511,8.155a1.3,1.3,0,0,0-.838-1.207l-5.765-2.242a1.56,1.56,0,0,0-1.676.341,1.489,1.489,0,0,0-.347,1.646l2.284,5.657a1.315,1.315,0,0,0,1.229.822h0a1.317,1.317,0,0,0,1.231-.816l.666-1.626,2.234,2.192a.518.518,0,0,0,.725,0,.5.5,0,0,0,.009-.7l-.009-.01-2.234-2.193,1.656-.652a1.3,1.3,0,0,0,.833-1.211Zm-1.214.277-2.377.937a.514.514,0,0,0-.286.281l-.954,2.331a.3.3,0,0,1-.555,0l-2.284-5.657a.506.506,0,0,1,.119-.563.546.546,0,0,1,.372-.157.561.561,0,0,1,.2.04l5.765,2.241a.294.294,0,0,1,0,.549Z" transform="translate(-3774.13 -1888.553)" fill="none" stroke="#fff" stroke-width="0.5"/>
</svg>
