<svg xmlns="http://www.w3.org/2000/svg" width="13.381" height="13.381" viewBox="0 0 13.381 13.381">
  <path id="info-circle-solid" d="M14.691,8a6.691,6.691,0,1,0,6.691,6.691A6.692,6.692,0,0,0,14.691,8Zm0,2.968A1.133,1.133,0,1,1,13.558,12.1,1.133,1.133,0,0,1,14.691,10.968ZM16.2,17.82a.324.324,0,0,1-.324.324H13.5a.324.324,0,0,1-.324-.324v-.647a.324.324,0,0,1,.324-.324h.324V15.122H13.5a.324.324,0,0,1-.324-.324v-.647a.324.324,0,0,1,.324-.324H15.23a.324.324,0,0,1,.324.324v2.7h.324a.324.324,0,0,1,.324.324Z" transform="translate(-8 -8)" fill="#2e4765"/>
</svg>
