<svg xmlns="http://www.w3.org/2000/svg" width="741.894" height="105.733" viewBox="0 0 741.894 105.733">
  <path id="Trazado_2296" data-name="Trazado 2296" d="M2853.214,2059.475s10.534-3.479,17.556,7.54,22.237,28.412,39.206,24.933,23.993-27.252,27.5-45.807,19.312-24.356,26.92-21.454,11.7,6.958,16.971,28.991,28.09,20.874,40.379,20.874,18.141,13.917,29.26,15.655,25.163,9.279,37.453-24.355,38.039-31.312,48.573-26.673,26.335,4.059,48.574-27.832,45.061-19.715,49.743-11.6,14.045,53.925,36.283,62.043,24.579-1.16,33.357,10.437,27.5,33.631,49.157,11.6,45.647-74.217,76.662-74.217,33.357,31.311,49.743,36.529,18.141-1.739,29.261,13.336,28.089,32.471,43.3,20.874,23.409-25.513,40.965-18.555" transform="translate(-2852.744 -1989.044)" fill="none" stroke="#0ab178" stroke-miterlimit="10" stroke-width="3"/>
</svg>
