<svg xmlns="http://www.w3.org/2000/svg" width="23.333" height="23.333" viewBox="0 0 23.333 23.333">
  <g id="Grupo_9758" data-name="Grupo 9758" transform="translate(-2556.706 -2065.979)">
    <rect id="Rectángulo_2304" data-name="Rectángulo 2304" width="22.333" height="22.333" rx="7.521" transform="translate(2579.539 2088.812) rotate(180)" fill="none" stroke="#91a9c0" stroke-miterlimit="10" stroke-width="1" opacity="0.42"/>
    <g id="Grupo_9757" data-name="Grupo 9757">
      <g id="Grupo_9756" data-name="Grupo 9756">
        <path id="Trazado_3007" data-name="Trazado 3007" d="M2569.112,2069.991c.191.033.383.069.575.1a5.55,5.55,0,0,1,2.02.758,5.708,5.708,0,0,1,1.847,1.778,5.623,5.623,0,0,1,.947,3.465,5.046,5.046,0,0,1-.542,1.824,12.036,12.036,0,0,1-1.276,2.164c-.639.856-1.292,1.7-1.973,2.524-.5.6-1.056,1.166-1.587,1.746-.047.051-.1.1-.146.147a.365.365,0,0,1-.586,0c-.4-.413-.806-.821-1.184-1.254-.57-.653-1.135-1.312-1.672-1.992a16.7,16.7,0,0,1-2.181-3.442,4.929,4.929,0,0,1-.5-1.749,5.59,5.59,0,0,1,.586-2.788A5.8,5.8,0,0,1,2565.4,2071a5.873,5.873,0,0,1,2.677-.98c.056-.007.112-.021.167-.032Zm-.442,8.541a2.7,2.7,0,1,0-2.7-2.717A2.694,2.694,0,0,0,2568.67,2078.532Z" fill="#2e4dd4"/>
      </g>
    </g>
  </g>
</svg>

