<svg xmlns="http://www.w3.org/2000/svg" width="22.448" height="16.469" viewBox="0 0 22.448 16.469">
  <path id="Trazado_2741" data-name="Trazado 2741" d="M1506.5,2975.43l3.935-3.808c2.21-2.137,4.437-4.257,6.622-6.419a2.565,2.565,0,0,1,3.144-.246,2.318,2.318,0,0,1,.212,3.512q-5.884,5.736-11.786,11.457a4.649,4.649,0,0,1-1.167.859,2.2,2.2,0,0,1-2.58-.562c-1.862-1.791-3.666-3.642-5.476-5.486a2.332,2.332,0,1,1,3.33-3.258q1.761,1.758,3.5,3.539A2.611,2.611,0,0,1,1506.5,2975.43Z" transform="translate(-1498.669 -2964.53)" fill="#fff"/>
</svg>

