<svg xmlns="http://www.w3.org/2000/svg" width="22.466" height="11.944" viewBox="0 0 22.466 11.944">
  <g id="Grupo_11570" data-name="Grupo 11570" transform="translate(-1063.361 -728.989)">
    <g id="Grupo_11569" data-name="Grupo 11569">
      <path id="Trazado_3937" data-name="Trazado 3937" d="M1085.827,734.977a16.9,16.9,0,0,1-6.487,4.981,12.117,12.117,0,0,1-9.832-.137,17,17,0,0,1-6.147-4.84c0-.018,0-.042.009-.055a16.387,16.387,0,0,1,6.823-5.1,12.3,12.3,0,0,1,11.266,1.236,18.041,18.041,0,0,1,4.311,3.821A1,1,0,0,1,1085.827,734.977Zm-11.179,4.839a4.854,4.854,0,1,0-4.853-4.835A4.834,4.834,0,0,0,1074.648,739.816Zm-4.584-.99a5.944,5.944,0,0,1-1.37-3.874,6.067,6.067,0,0,1,1.372-3.854,15.042,15.042,0,0,0-5.258,3.866A15.169,15.169,0,0,0,1070.064,738.826Zm9.213-7.684a6.119,6.119,0,0,1,0,7.64,15.824,15.824,0,0,0,5.088-3.821A15.843,15.843,0,0,0,1079.277,731.142Z" fill="#2e4dd4"/>
      <path id="Trazado_3938" data-name="Trazado 3938" d="M1075.678,732.556c-.543.582-.6,1.124-.182,1.561s.946.406,1.568-.119a2.567,2.567,0,0,1-.839,3.066,2.626,2.626,0,1,1-.547-4.508Z" fill="#2e4dd4"/>
    </g>
  </g>
</svg>
