<svg xmlns="http://www.w3.org/2000/svg" width="149.573" height="150.139" viewBox="0 0 149.573 150.139">
  <g id="Grupo_9421" data-name="Grupo 9421" transform="translate(-1490.905 -2707.927)">
    <rect id="Rectángulo_2168" data-name="Rectángulo 2168" width="2.398" height="74.834" transform="translate(1528.75 2776.856)" fill="#05173e"/>
    <path id="Trazado_2750" data-name="Trazado 2750" d="M1600.743,2827.288s6.011,4.88,6.953,5.822-6.953,8.391-6.953,8.391.807-7.585,0-8.391-5.382-1.369-5.382-1.369Z" fill="#ff7c4f"/>
    <path id="Trazado_2751" data-name="Trazado 2751" d="M1604.095,2828.892s6.464,3.421,6.464,4.782-8.844,12.64-10.007,13.283c-1.661.918-7.4,1.389-8.342.443s1.669-2.946,3.151-4.428,2.689-3.719,2.689-5.136-2.767-5.251,0-5.251S1604.095,2828.892,1604.095,2828.892Z" fill="#00bf78"/>
    <path id="Trazado_2752" data-name="Trazado 2752" d="M1605.437,2838.9l1.873,3.705a8.559,8.559,0,0,0,4,3.887h0l-4.34,7.067s-6.133,4.07-8.46,3.129,4.941-4.392,4.941-4.392l-3.076-10.09Z" fill="#ff7c4f"/>
    <path id="Trazado_2753" data-name="Trazado 2753" d="M1562.713,2745.718s-1.158,3.719,0,4.877,3.083,2.347,3.083,3.7-.853,18.836,3.143,19.692,18.32-13.857,18.32-13.857l-5.823-7.106s-9.19,10.959-9.19,9.818-3.71-9.933-3.71-9.933l1.826-3.653s1.142-4.338-1.027-5.251S1562.713,2745.718,1562.713,2745.718Z" fill="#ff682b"/>
    <g id="Grupo_9418" data-name="Grupo 9418">
      <path id="Trazado_2754" data-name="Trazado 2754" d="M1568.911,2770.436c-2.82-1.563-2.847-12.934-3.115-16.1-.016,1.645-.815,18.8,3.143,19.648,3.995.856,18.32-13.857,18.32-13.857l-2.687-3.278C1580.907,2761.232,1571.574,2771.911,1568.911,2770.436Z" fill="#ff5921"/>
      <path id="Trazado_2755" data-name="Trazado 2755" d="M1565.6,2753.54a1.918,1.918,0,0,1,.152.423C1565.716,2753.634,1565.668,2753.477,1565.6,2753.54Z" fill="#ff5921"/>
    </g>
    <path id="Trazado_2756" data-name="Trazado 2756" d="M1596.132,2740.06s-1.3-.764-4.221.492-12.758,13.272-12.758,13.272l8.489,7.306a100.377,100.377,0,0,0,7.836-10.535C1599.36,2744.577,1596.132,2740.06,1596.132,2740.06Z" fill="#2e4dd4"/>
    <path id="Trazado_2757" data-name="Trazado 2757" d="M1611.365,2784.99l-2.386,1.434s-44.5,8.156-46.266,15.348,34.678,31.338,34.678,31.338l6.878-5.48s-23.161-15.968-20.55-18.58,33.393-8.476,33.393-8.476Z" fill="#29293d"/>
    <path id="Trazado_2758" data-name="Trazado 2758" d="M1552.885,2842.692s1.427,11.945,2.211,11.945h16.156s-8.744-3.551-10.376-5.182-3.351-7.211-3.351-7.211Z" fill="#ff7c4f"/>
    <path id="Trazado_2759" data-name="Trazado 2759" d="M1553.938,2851.594s9.564,1.372,10.791.145,7.106,2.178,7.106,2.9-15.556,1.38-18.124.544C1552.848,2854.9,1553.938,2852.036,1553.938,2851.594Z" fill="#2e4dd4"/>
    <path id="Trazado_2760" data-name="Trazado 2760" d="M1526.095,2731.091s-.109,6.832,1.3,10.384-9.536,3.264-9.536,3.264l1.344-20.833Z" fill="#ff7c4f"/>
    <path id="Trazado_2761" data-name="Trazado 2761" d="M1526.095,2731.091l-3.35-3.492a13.49,13.49,0,0,0,.24,4.812,7.119,7.119,0,0,0,3.3,3.359C1526.061,2733.249,1526.095,2731.091,1526.095,2731.091Z" fill="#ff5921"/>
    <path id="Trazado_2762" data-name="Trazado 2762" d="M1533.253,2729.421v6.076a2.526,2.526,0,0,0,2.527,2.526h2.165a2.526,2.526,0,0,0,2.527-2.526v-6.846h-7.219Z" fill="#2e4dd4"/>
    <path id="Trazado_2763" data-name="Trazado 2763" d="M1548.143,2740.552s-2.7-5.737-3.938-6.978a17.7,17.7,0,0,0-3.768-2.483s.728,2.141.257,2.611a3.577,3.577,0,0,1-2.654,1.371c-1.413,0-1.584.813-.6,1.8a25.249,25.249,0,0,0,5.4,3.939h0a1.3,1.3,0,0,1,1.214.842l.327.871,3.767-1.028Z" fill="#ff7c4f"/>
    <path id="Trazado_2764" data-name="Trazado 2764" d="M1543.734,2741.665s1.027,15.327,1.541,19.694,7.877,6.681,7.877,6.681v-9.593c0-5.908-4.709-17.9-4.709-17.9Z" fill="#00bf78"/>
    <path id="Trazado_2765" data-name="Trazado 2765" d="M1596.739,2777.969H1502.21a3.461,3.461,0,0,1,3.461-3.461h87.608a3.461,3.461,0,0,1,3.46,3.461Z" fill="#fff"/>
    <path id="Trazado_2766" data-name="Trazado 2766" d="M1627.092,2777.414s10.3-2.906,13.367-1.9l-4.06,12.042-12.235-2.091Z" fill="#29293d"/>
    <path id="Trazado_2767" data-name="Trazado 2767" d="M1528.464,2713.182s2.8,1.769,3.425,3.367-.057,13.3-1.712,15.584-5.937.171-7.192-2.341S1524.355,2710.727,1528.464,2713.182Z" fill="#ff7c4f"/>
    <path id="Trazado_2768" data-name="Trazado 2768" d="M1545.532,2751.855a61.873,61.873,0,0,0-8.264-9.947,13.761,13.761,0,0,0-12.6-3.536c-1.069.238-2.211.483-3.38.719a13.831,13.831,0,0,0-11.119,13.2l-.8,31.8a13.745,13.745,0,0,0,15.357,14.071,6.275,6.275,0,0,0,3.64-1.426c3.767-3.767,2.159-27.417,3.757-31.87,1.032-2.875,1.577-2.851,1.739-6.612,0,0,13.47,14.663,16.212,14.663,3.082,0,3.082-3,3.082-6.65S1552.21,2761.872,1545.532,2751.855Z" fill="#00bf78"/>
    <path id="Trazado_2769" data-name="Trazado 2769" d="M1524.668,2738.372c-1.069.238-2.211.483-3.38.719a13.831,13.831,0,0,0-11.119,13.2l-.464,18.358a9.567,9.567,0,0,0,3.319.3c8.095-.752,16.247-8.157,16.626-15.894.3-6.126-1.686-11.961-3.139-16.962A13.9,13.9,0,0,0,1524.668,2738.372Z" fill="#016589" opacity="0.61"/>
    <rect id="Rectángulo_2169" data-name="Rectángulo 2169" width="1.456" height="43.753" transform="translate(1526.095 2814.273)" fill="#05173e"/>
    <rect id="Rectángulo_2170" data-name="Rectángulo 2170" width="1.456" height="43.753" transform="translate(1504.433 2814.273)" fill="#05173e"/>
    <rect id="Rectángulo_2171" data-name="Rectángulo 2171" width="1.456" height="43.753" transform="translate(1531.789 2814.273)" fill="#05173e"/>
    <rect id="Rectángulo_2172" data-name="Rectángulo 2172" width="2.397" height="74.834" transform="translate(1582.281 2777.531)" fill="#05173e"/>
    <path id="Trazado_2770" data-name="Trazado 2770" d="M1617.112,2786.345s-21.081,5.939-36.989,11.932,19.865,45.622,19.865,45.622l7.535-3.425s-17.239-30.2-14.585-32.854,28.8-9.444,28.8-9.444Z" fill="#3e394f"/>
    <path id="Trazado_2771" data-name="Trazado 2771" d="M1563.331,2844.74s1.427,11.946,2.211,11.946H1581.7s-8.744-3.551-10.376-5.183-3.351-7.211-3.351-7.211Z" fill="#ff7c4f"/>
    <path id="Trazado_2772" data-name="Trazado 2772" d="M1552.447,2806.591c-3.083-3.082-26.352-15.436-26.352-15.436l-17.038,5.138s.77,6.592,3.767,9.589,32.341,8.391,32.341,8.391,5.073,32.145,5.089,32.241c1.507-.115,7.82-1.412,9.328-1.447C1559.355,2843.494,1555.529,2809.674,1552.447,2806.591Z" fill="#29293d"/>
    <path id="Trazado_2773" data-name="Trazado 2773" d="M1532.517,2788.587s23.07,1.975,28.769,16.473c1.728,4.4,9.683,41.9,9.683,41.9l-7.914,1.031s-11.144-27.9-11.915-32.864-21.842-7.391-26.123-8.247-11.993-11.041-11.993-11.041Z" fill="#3e394f"/>
    <path id="Trazado_2774" data-name="Trazado 2774" d="M1490.905,2771.633s1.4,33.564,13.528,42.64h40.732s8.034-3.938,8.034-11.644-3.854-16.1-24.812-25.345S1490.905,2771.633,1490.905,2771.633Z" fill="#29293d"/>
    <path id="Trazado_2775" data-name="Trazado 2775" d="M1528.387,2777.284a74.253,74.253,0,0,0-21.33-5.881c4.339,1.1,11.8,2.77,16.813,5.275,20.959,10.48,25.3,18.174,25.3,26.91,0,7.761-4.021,9.408-6.36,10.685h2.352s8.034-3.938,8.034-11.644S1549.345,2786.529,1528.387,2777.284Z" fill="#fff"/>
    <rect id="Rectángulo_2173" data-name="Rectángulo 2173" width="1.456" height="42.889" transform="translate(1543.571 2815.137)" fill="#05173e"/>
    <rect id="Rectángulo_2174" data-name="Rectángulo 2174" width="40.594" height="3.939" transform="translate(1504.433 2814.273)" fill="#05173e"/>
    <rect id="Rectángulo_2175" data-name="Rectángulo 2175" width="1.456" height="44.913" transform="translate(1591.482 2813.113)" fill="#05173e"/>
    <rect id="Rectángulo_2176" data-name="Rectángulo 2176" width="1.456" height="44.619" transform="translate(1626.66 2813.407)" fill="#05173e"/>
    <rect id="Rectángulo_2177" data-name="Rectángulo 2177" width="36.633" height="3.09" transform="translate(1591.482 2812.047)" fill="#05173e"/>
    <path id="Trazado_2776" data-name="Trazado 2776" d="M1528.35,2709.072s-3.082-2.4-9.59,0-5.48,8.1-4.909,11.755c.6,3.846-5.25,5.157-7.33,7.338-7.291,7.645-10.124,19.661-8.331,29.9a12.594,12.594,0,0,0,13.768,10.156c8.094-.752,13.73-8.6,14.109-16.334.571-11.645-3.539-19.065-.114-24.888s2.283-8.9,3.425-10.046a2.169,2.169,0,0,1,2.511-.4S1540.631,2708.006,1528.35,2709.072Z" fill="#05173e"/>
    <path id="Trazado_2777" data-name="Trazado 2777" d="M1591.911,2740.552s-1.8,8.249-1.113,14.3c.535,4.731,11.515,21.686,16.28,28.857a10.556,10.556,0,0,0,5.878,4.3l15.972,4.6,2.968,2.084a76.141,76.141,0,0,0-.8-14.841c-1.255-9.361-21.805-43.61-26.486-43.61S1591.911,2740.552,1591.911,2740.552Z" fill="#2e4dd4"/>
    <path id="Trazado_2778" data-name="Trazado 2778" d="M1593.78,2744.877c.044,0,.088,0,.132-.006,7.661-.654,10.352-7.661,10.463-7.959l.176-.474-.114-.193c-4.7.1-12.526,4.307-12.526,4.307s-.072.328-.181.9C1591.918,2743.126,1592.28,2744.877,1593.78,2744.877Z" fill="#fff8f3"/>
    <path id="Trazado_2779" data-name="Trazado 2779" d="M1609.09,2740.18l-4.995-.816s-6.344,16.16-9.465,24.269c1.017,1.844,2.168,3.818,3.366,5.808a9.618,9.618,0,0,1,1.759-3.157c1.683-1.682,3.587-.752,4.34-1.5s7.215-10.627,7.215-16.744S1609.09,2740.18,1609.09,2740.18Z" fill="#ffbf91" opacity="0.3" style="mix-blend-mode: multiply;isolation: isolate"/>
    <path id="Trazado_2780" data-name="Trazado 2780" d="M1602.785,2755.913s-8.157,18.059-11.3,18.627c-3.456.624-21.326-.032-21.326-.032h-4.934a3.365,3.365,0,0,1-3.44-3.1c-.043-.726.153-1.291.869-1.291,2,0,6.578.384,7.72.384s12.27-1.085,13.526-2.341,11.1-20.123,11.1-20.123Z" fill="#ff7c4f"/>
    <path id="Trazado_2781" data-name="Trazado 2781" d="M1598.9,2763.888c2.163-4.171,3.882-7.975,3.882-7.975l-7.789-7.878s-2.628,5.037-5.341,10.079C1592.015,2760.142,1595.72,2762.978,1598.9,2763.888Z" fill="#ff5921"/>
    <path id="Trazado_2782" data-name="Trazado 2782" d="M1591.482,2810.677s4-8.448,14.5-17.124,34.478-18.038,34.478-18.038,1.027,32.308-12.216,36.532h-36.761Z" fill="#29293d"/>
    <path id="Trazado_2783" data-name="Trazado 2783" d="M1626.948,2807.942h-33.9a28.9,28.9,0,0,0-1.566,2.735v1.37h36.761c10.375-3.309,11.991-23.854,12.2-32.6C1638.456,2792.26,1634.554,2804.809,1626.948,2807.942Z"/>
    <path id="Trazado_2784" data-name="Trazado 2784" d="M1594.866,2722.082l8.513,14.46s-2.479,6.666-9.557,7.271c-1.079.092-1.021-3.38-1.27-4.434l-2.086-8.846Z" fill="#ff7c4f"/>
    <path id="Trazado_2785" data-name="Trazado 2785" d="M1594.866,2722.082l-4.4,8.451.879,3.725a33.658,33.658,0,0,0,4.028-11.315Z" fill="#ff5921"/>
    <path id="Trazado_2786" data-name="Trazado 2786" d="M1591.4,2712.989s3.468,6.093,3.468,9.093-4.406,11.717-8.061,10.5-5.062-11.905-5.062-16.874S1589.054,2709.708,1591.4,2712.989Z" fill="#ff7c4f"/>
    <path id="Trazado_2787" data-name="Trazado 2787" d="M1591.21,2707.927s2.813.094,2.813,2.343,2.812.844,3.374,3.563-1.638,9.766-1.638,9.766a48.885,48.885,0,0,1-4.549-3.861c-1.875-1.875-1.968-4.734-2.906-4.734s-3.468.328-6.561,3.422-8.718.469-6.656-4.125,5.531-3.937,9.562-4.405A18.031,18.031,0,0,0,1591.21,2707.927Z" fill="#05173e"/>
    <path id="Trazado_2788" data-name="Trazado 2788" d="M1597.391,2740.059c-2.555,3.786-6.028,13.736-6.593,14.792-1.44,2.689,8.367,7.045,10.194,6.588s7.17-11.581,8.3-15.721c.811-2.973.1-7.1-2.738-8.846C1603.285,2734.865,1599.476,2736.969,1597.391,2740.059Z" fill="#2e4dd4"/>
    <g id="Grupo_9419" data-name="Grupo 9419">
      <path id="Trazado_2789" data-name="Trazado 2789" d="M1539.238,2735.073h-1.2v-1.028h1.2a1.029,1.029,0,0,0,1.028-1.027v-1.028a1.028,1.028,0,0,0-1.028-1.027H1537.7v-1.028h1.541a2.058,2.058,0,0,1,2.056,2.055v1.028A2.058,2.058,0,0,1,1539.238,2735.073Z" fill="#05173e"/>
    </g>
    <path id="Trazado_2790" data-name="Trazado 2790" d="M1575.864,2743.292v6.075a2.526,2.526,0,0,1-2.526,2.527h-2.166a2.527,2.527,0,0,1-2.527-2.527v-6.845h7.219Z" fill="#00bf78"/>
    <g id="Grupo_9420" data-name="Grupo 9420">
      <path id="Trazado_2791" data-name="Trazado 2791" d="M1567.66,2748.943h1.2v-1.027h-1.2a1.029,1.029,0,0,1-1.028-1.028v-1.027a1.029,1.029,0,0,1,1.028-1.028h1.541v-1.027h-1.541a2.057,2.057,0,0,0-2.055,2.055v1.027A2.056,2.056,0,0,0,1567.66,2748.943Z" fill="#00bf78"/>
    </g>
    <path id="Trazado_2792" data-name="Trazado 2792" d="M1591.482,2810.677c2.806-8.03,10.148-15.985,17.134-21.018,7.553-5.5,22.523-11.858,31.843-14.144-21.36,11.92-31.515,15.041-44.188,29.172A62.483,62.483,0,0,0,1591.482,2810.677Z" fill="#fff"/>
    <path id="Trazado_2793" data-name="Trazado 2793" d="M1562.713,2745.718s5.831-.955,6.786,0-4.663,1.734-4.663,1.734Z" fill="#ff682b"/>
    <path id="Trazado_2794" data-name="Trazado 2794" d="M1563.832,2748.943s4.7-.382,4.811-1.373-4.339-.362-4.339-.362Z" fill="#ff682b"/>
    <path id="Trazado_2795" data-name="Trazado 2795" d="M1565.264,2745.294a9.457,9.457,0,0,0,3.381-.461c1.268-.554-2.406-.672-2.406-.672Z" fill="#ff682b"/>
    <path id="Trazado_2796" data-name="Trazado 2796" d="M1607.145,2842.145s5.67,3,5.67,4.194-7.694,11.222-8.777,11.651c-.434.172-8.382.036-8.677-.258-.829-.83,2.825-1.938,4.124-3.237a7.8,7.8,0,0,0,2.359-4.505c0-1.243-2.428-4.606,0-4.606S1607.145,2842.145,1607.145,2842.145Z" fill="#00bf78"/>
    <path id="Trazado_2797" data-name="Trazado 2797" d="M1564.384,2853.642s9.564,1.373,10.791.146,7.1,2.177,7.1,2.9-15.555,1.38-18.123.543C1563.293,2856.948,1564.384,2854.085,1564.384,2853.642Z" fill="#2e4dd4"/>
  </g>
</svg>
