<svg xmlns="http://www.w3.org/2000/svg" xmlns:xlink="http://www.w3.org/1999/xlink" width="9.182" height="9.184" viewBox="0 0 9.182 9.184">
  <defs>
    <clipPath id="clip-path">
      <rect id="Rectángulo_2182" data-name="Rectángulo 2182" width="9.182" height="9.184" transform="translate(2070.556 2828.95)" fill="none"/>
    </clipPath>
  </defs>
  <g id="Grupo_9440" data-name="Grupo 9440" transform="translate(-2070.556 -2828.95)" opacity="0.7">
    <g id="Grupo_9439" data-name="Grupo 9439">
      <g id="Grupo_9438" data-name="Grupo 9438" clip-path="url(#clip-path)">
        <path id="Trazado_2820" data-name="Trazado 2820" d="M2079.738,2833.541a.417.417,0,0,0-.417-.417h-8.348a.417.417,0,0,0-.417.417,4.589,4.589,0,0,0,2.183,3.909.417.417,0,0,0,.322.684h4.173a.418.418,0,0,0,.321-.684,4.591,4.591,0,0,0,2.183-3.909" fill="#2e4765"/>
        <path id="Trazado_2821" data-name="Trazado 2821" d="M2073.494,2830.742c-.2-.2-.295-.3-.295-.54s.09-.335.295-.539a.418.418,0,0,0-.59-.591,1.455,1.455,0,0,0,0,2.261c.2.2.295.3.295.539a.417.417,0,0,0,.835,0,1.486,1.486,0,0,0-.54-1.13" fill="#2e4765"/>
        <path id="Trazado_2822" data-name="Trazado 2822" d="M2075.442,2830.742c-.2-.2-.295-.3-.295-.54s.09-.335.295-.539a.418.418,0,0,0-.591-.591,1.454,1.454,0,0,0,0,2.26c.2.205.3.3.3.539a.417.417,0,0,0,.835,0,1.492,1.492,0,0,0-.54-1.129" fill="#2e4765"/>
        <path id="Trazado_2823" data-name="Trazado 2823" d="M2079.02,2830.708a.418.418,0,0,0-.585.073l-1.174,1.508h1.058l.775-1a.418.418,0,0,0-.074-.584" fill="#2e4765"/>
      </g>
    </g>
  </g>
</svg>
