<svg xmlns="http://www.w3.org/2000/svg" width="24.469" height="24.388" viewBox="0 0 24.469 24.388">
  <g id="Grupo_8548" data-name="Grupo 8548" transform="translate(-4017.071 -1901.668)">
    <path id="Trazado_2324" data-name="Trazado 2324" d="M4032.1,1909.8c-.328-.1-.608-.163-.873-.268-1.724-.682-3.453-1.354-5.16-2.077a.914.914,0,0,0-1.087.167c-1.832,1.5-3.684,2.965-5.534,4.438a1.4,1.4,0,0,1-1.848.144,1.34,1.34,0,0,1,.125-2.215q2.668-2.169,5.366-4.3c2.21-1.753,1.636-1.645,4.27-.608,1.277.5,2.559.995,3.818,1.539a1.207,1.207,0,0,0,1.321-.122q3.312-2.268,6.679-4.456a2.283,2.283,0,0,1,1.262-.368,1.176,1.176,0,0,1,1.065,1.032,1.341,1.341,0,0,1-.686,1.469q-2.525,1.69-5.056,3.371c-.923.616-1.838,1.243-2.771,1.842A6.653,6.653,0,0,1,4032.1,1909.8Z" fill="#fff"/>
    <path id="Trazado_2325" data-name="Trazado 2325" d="M4040.167,1917.243c0,2.435.012,4.87,0,7.3a1.341,1.341,0,1,1-2.669.042c.007-4.918,0-9.837.007-14.755a1.331,1.331,0,1,1,2.658-.042c.019,2.483.007,4.966.007,7.45Z" fill="#fff"/>
    <path id="Trazado_2326" data-name="Trazado 2326" d="M4023.9,1918.535c0-1.929-.005-3.857,0-5.786,0-1.023.5-1.61,1.348-1.612s1.359.577,1.361,1.6q.014,5.858,0,11.715c0,.977-.584,1.619-1.388,1.595a1.411,1.411,0,0,1-1.32-1.587C4023.889,1922.488,4023.9,1920.511,4023.9,1918.535Z" fill="#fff"/>
    <path id="Trazado_2327" data-name="Trazado 2327" d="M4033.372,1919.268c0,1.736.006,3.473,0,5.21-.005.956-.525,1.565-1.316,1.575-.818.01-1.361-.622-1.363-1.614q-.006-5.175,0-10.349c0-1.005.529-1.617,1.363-1.607.8.01,1.31.61,1.315,1.574C4033.378,1915.794,4033.372,1917.531,4033.372,1919.268Z" fill="#fff"/>
    <path id="Trazado_2328" data-name="Trazado 2328" d="M4017.1,1920.6c0-1.279-.008-2.558,0-3.838a1.373,1.373,0,1,1,2.723-.028q.021,3.873,0,7.748a1.423,1.423,0,0,1-1.354,1.569c-.806.011-1.366-.638-1.371-1.613C4017.095,1923.161,4017.1,1921.882,4017.1,1920.6Z" fill="#fff"/>
  </g>
</svg>
