<svg xmlns="http://www.w3.org/2000/svg" width="30.861" height="27.162" viewBox="0 0 30.861 27.162">
  <g id="Grupo_11043" data-name="Grupo 11043" transform="translate(-87.938 -2729.943)">
    <path id="Trazado_3653" data-name="Trazado 3653" d="M118.8,2747.074a3.529,3.529,0,0,1-1.678,2.184q-5.367,3.54-10.748,7.058a4.439,4.439,0,0,1-4.637.258c-1.879-.915-3.752-1.849-5.577-2.866a2.166,2.166,0,0,0-2.745.152,10.617,10.617,0,0,1-1.195.787.619.619,0,1,1-.678-1.026c.607-.4,1.221-.791,1.831-1.187a2.529,2.529,0,0,1,2.687-.127c1.377.7,2.746,1.418,4.123,2.118.769.392,1.539.785,2.325,1.138a3.137,3.137,0,0,0,3.177-.281c2.619-1.708,5.246-3.4,7.864-5.111.934-.609,1.866-1.221,2.772-1.869a7.123,7.123,0,0,0,1.061-1,.571.571,0,0,0,.125-.692.761.761,0,0,0-.717-.432,3.829,3.829,0,0,0-2.09.748c-1.881,1.236-3.78,2.451-5.6,3.778a4.1,4.1,0,0,1-2.56.832c-1.671-.014-3.345-.007-5.011-.113a16.8,16.8,0,0,1-2.6-.516.612.612,0,1,1,.315-1.177c2.547.757,5.157.592,7.759.543a2.7,2.7,0,0,0,.792-.18.731.731,0,0,0,.03-1.383,5.388,5.388,0,0,0-1.295-.246,16.787,16.787,0,0,1-4.695-.939,3.182,3.182,0,0,1-1.6-1.055c-1.2-1.588-2.871-1.806-4.679-1.693a8.576,8.576,0,0,0-2.843.9c-1.21.521-2.4,1.085-3.6,1.631-.1.047-.2.1-.31.141a.614.614,0,0,1-.8-.316.593.593,0,0,1,.3-.8c.507-.255,1.019-.5,1.541-.728a43.177,43.177,0,0,1,4.212-1.749,6.819,6.819,0,0,1,6.047.759,4.015,4.015,0,0,1,.909.819,3.43,3.43,0,0,0,1.689,1.079,1.414,1.414,0,0,0,1.409-.17c1.089-.742,2.226-1.413,3.349-2.1a4.242,4.242,0,0,1,2.528-.679,1.484,1.484,0,0,1,1.5.991c.46-.13.9-.283,1.349-.376a1.97,1.97,0,0,1,1.569.278,1.048,1.048,0,0,1,.561.952c.267-.1.505-.189.745-.271a2.731,2.731,0,0,1,1.541-.13,2.039,2.039,0,0,1,1.548,1.589Zm-9.256,1.808c-.008,0,.016,0,.034-.011q2.047-1.374,4.093-2.755a.422.422,0,0,0,.156-.268c.041-.332-.079-.463-.454-.474a3.428,3.428,0,0,0-2.036.662c-.781.526-1.552,1.066-2.326,1.6-.079.054-.15.121-.186.15Zm-4.259-1.86.036.114c.641.049,1.282.1,1.924.138a.563.563,0,0,0,.3-.129q1.31-.892,2.608-1.8a1.242,1.242,0,0,0,.227-.3c-.124-.079-.258-.238-.37-.224a4.678,4.678,0,0,0-1.546.306C107.372,2745.7,106.34,2746.383,105.284,2747.022Z" fill="#fff"/>
    <path id="Trazado_3654" data-name="Trazado 3654" d="M96.585,2736.718a6.784,6.784,0,1,1,6.742,6.806A6.8,6.8,0,0,1,96.585,2736.718Zm1.236.021a5.548,5.548,0,1,0,5.543-5.564A5.542,5.542,0,0,0,97.821,2736.739Z" fill="#fff"/>
    <path id="Trazado_3655" data-name="Trazado 3655" d="M103.98,2740.331v.7h-1.219v-.751a2.2,2.2,0,0,1-1.5-.941,2.635,2.635,0,0,1-.347-1.348h1.1c.02.033.04.051.042.07a1.43,1.43,0,0,0,2.225,1.072.845.845,0,0,0,.411-.807.646.646,0,0,0-.482-.632c-.365-.123-.741-.212-1.112-.317-.262-.074-.53-.132-.784-.227a1.731,1.731,0,0,1-1.244-1.793,1.849,1.849,0,0,1,1.39-1.776c.263-.069.32-.181.3-.418s0-.475,0-.76h1.231c0,.282.013.53,0,.776-.016.224.043.329.282.4a1.939,1.939,0,0,1,1.379,1.908c-.325,0-.651.011-.975-.009-.063,0-.146-.12-.171-.2a1.294,1.294,0,0,0-1.975-.584.82.82,0,0,0,.167,1.4,11.5,11.5,0,0,0,1.108.325c.294.086.594.159.878.269a1.63,1.63,0,0,1,1.155,1.567,1.805,1.805,0,0,1-1.07,1.788A7.594,7.594,0,0,1,103.98,2740.331Z" fill="#fff"/>
  </g>
</svg>
