<svg xmlns="http://www.w3.org/2000/svg" width="24.15" height="24.16" viewBox="0 0 24.15 24.16">
  <g id="Grupo_11051" data-name="Grupo 11051" transform="translate(-90.889 -3065.298)">
    <path id="Trazado_3658" data-name="Trazado 3658" d="M104.19,3067.94c.443-.049.871-.1,1.3-.141a16.881,16.881,0,0,1,5.669.369,8.624,8.624,0,0,1,1.778.7,1.582,1.582,0,0,1,.894,1.568c-.036,1.734-.014,3.469-.007,5.2a1.008,1.008,0,0,0,.112.451,9.038,9.038,0,0,1-6.585,13.258,8.749,8.749,0,0,1-6.119-1.261.867.867,0,0,0-.659-.114,17.24,17.24,0,0,1-7.1-.2,8.04,8.04,0,0,1-1.7-.675,1.6,1.6,0,0,1-.894-1.566q.03-8.779,0-17.559a1.614,1.614,0,0,1,.784-1.462,6.209,6.209,0,0,1,2.316-.857,17.541,17.541,0,0,1,7.868.2,6.382,6.382,0,0,1,1.424.6A1.565,1.565,0,0,1,104.19,3067.94Zm1.805,4.613a7.84,7.84,0,1,0,7.825,7.874A7.822,7.822,0,0,0,106,3072.553Zm-3.034-3.335a15.933,15.933,0,0,1-10.859,0c0,.644.009,1.275-.006,1.905a.437.437,0,0,0,.256.456,6.777,6.777,0,0,0,.983.42,16.052,16.052,0,0,0,7.716.182,9.227,9.227,0,0,0,1.611-.579.527.527,0,0,0,.286-.367C102.976,3070.568,102.961,3069.9,102.961,3069.218Zm.086-1.485a3.264,3.264,0,0,0-.526-.354,9.3,9.3,0,0,0-1.3-.46,16.285,16.285,0,0,0-6.365-.2,16.022,16.022,0,0,0-2.2.6,3.157,3.157,0,0,0-.631.386,2.34,2.34,0,0,0,.421.309,11.473,11.473,0,0,0,1.483.527,16.5,16.5,0,0,0,5.669.27,9.1,9.1,0,0,0,2.731-.663A7.665,7.665,0,0,0,103.047,3067.733Zm1.129,3.341c.093.021.174.047.256.058a17.322,17.322,0,0,0,6.261-.147,9.806,9.806,0,0,0,1.694-.592c.309-.132.306-.321,0-.476a6.951,6.951,0,0,0-1.246-.513,15.621,15.621,0,0,0-5.293-.424c-.559.036-1.115.119-1.675.181Zm-4.256,2.567a15.771,15.771,0,0,1-7.789-.833.454.454,0,0,0-.026.091q0,.665,0,1.329c0,.929.008.956.88,1.274a13.969,13.969,0,0,0,4.872.664.266.266,0,0,0,.194-.12A10.4,10.4,0,0,1,99.92,3073.641Zm-.233,13.274c-.121-.134-.189-.2-.244-.271-.449-.6-.908-1.2-1.335-1.814a.41.41,0,0,0-.4-.22,13.147,13.147,0,0,1-3.916-.4c-.56-.15-1.111-.339-1.691-.518,0,.646.01,1.284-.006,1.921a.418.418,0,0,0,.243.433,7.544,7.544,0,0,0,.979.426,14.379,14.379,0,0,0,4.631.547C98.5,3087.011,99.052,3086.955,99.687,3086.915Zm-2.295-9.54a13.38,13.38,0,0,1-5.29-.949c0,.662.013,1.283-.007,1.9a.519.519,0,0,0,.311.542,3.147,3.147,0,0,0,.564.257c.708.182,1.418.373,2.137.5.589.1,1.192.121,1.753.174ZM96.869,3081a12.567,12.567,0,0,1-4.767-.95c0,.651.016,1.263-.008,1.874a.536.536,0,0,0,.323.563,2.723,2.723,0,0,0,.458.216,20.061,20.061,0,0,0,2.074.524c.8.129,1.625.154,2.435.225Zm13.362-8.671,2.374,1.808v-2.506c-.413.145-.8.3-1.206.419S110.583,3072.243,110.231,3072.325Z" fill="#fff"/>
    <path id="Trazado_3659" data-name="Trazado 3659" d="M105.37,3083.781v-2.775c-.1-.025-.2-.045-.3-.074a2.736,2.736,0,0,1-2.052-2.084,2.628,2.628,0,0,1,1.91-2.941,1.243,1.243,0,0,0,.272-.068c.073-.041.163-.121.172-.193.058-.455.27-.7.623-.687s.574.277.586.721c0,.038.006.075.01.131.113.027.229.054.345.083a2.823,2.823,0,0,1,2,1.721.624.624,0,1,1-1.152.441,1.443,1.443,0,0,0-1.183-1.013v2.724a2.821,2.821,0,0,1,2.462,2.628c.031,1.162-.856,2.094-2.458,2.582-.061.613-.246.85-.65.835-.379-.014-.546-.246-.584-.841l-.307-.072a2.793,2.793,0,0,1-2.05-1.768.616.616,0,1,1,1.151-.425A1.589,1.589,0,0,0,105.37,3083.781Zm-.005-6.732a1.416,1.416,0,0,0-1.213,1.35,1.384,1.384,0,0,0,1.213,1.209Zm1.232,4.066v2.581a1.388,1.388,0,0,0,1.193-1.216A1.407,1.407,0,0,0,106.6,3081.115Z" fill="#fff"/>
  </g>
</svg>
