<svg xmlns="http://www.w3.org/2000/svg" width="26.321" height="26.317" viewBox="0 0 26.321 26.317">
  <g id="Grupo_11035" data-name="Grupo 11035" transform="translate(-89.803 -2953.565)">
    <path id="Trazado_3645" data-name="Trazado 3645" d="M98.572,2956.849a2.265,2.265,0,0,1,1.17-1.924,2.127,2.127,0,0,1,2.237.085,2.2,2.2,0,0,1,4.14.011,2.128,2.128,0,0,1,2.239-.1,2.288,2.288,0,0,1,1.192,1.931h5.968a.547.547,0,0,1,.606.6v11.963a.547.547,0,0,1-.605.6h-2.685v.177q0,1.608,0,3.216a.539.539,0,0,1-.388.526.516.516,0,0,1-.6-.211.784.784,0,0,1-.105-.378c-.008-1.047,0-2.094,0-3.141v-.182H101.7l0,.014.213.055a5.8,5.8,0,0,1,4.222,3.859c.037.1.072.2.1.3a.55.55,0,0,1-1.042.349c-.108-.267-.2-.541-.324-.8a4.524,4.524,0,0,0-3.527-2.691,5.92,5.92,0,0,0-2.111,0,.557.557,0,0,1-.652-.6c.033-1.292.286-2.559.415-3.839.032-.322.084-.642.117-.964a1.07,1.07,0,0,0-.993-1.16,1.025,1.025,0,0,0-1.161,1.015c-.1.917-.181,1.835-.271,2.752-.093.942-.182,1.884-.28,2.826a2.844,2.844,0,0,0,.182,1.23,6.413,6.413,0,0,0,1.341,2.191c.73.811,1.492,1.594,2.244,2.385a.848.848,0,0,1,.225.443c.117.621.246,1.24.362,1.862a.542.542,0,0,1-.43.634.554.554,0,0,1-.646-.44c-.075-.355-.143-.712-.215-1.068a.352.352,0,0,1-.006-.045,1.793,1.793,0,0,0-.605-1.181c-.64-.635-1.255-1.3-1.849-1.975a6.913,6.913,0,0,1-1.594-2.906,4.571,4.571,0,0,1-.062-1.736c.023-.162.034-.326.052-.511H90.447c-.439,0-.644-.2-.644-.635v-11.889a.552.552,0,0,1,.628-.635q3.971,0,7.94,0Zm-1.083,6.607c.219-.01.418-.029.616-.026a2.121,2.121,0,0,1,2.1,2.424c-.079.667-.149,1.336-.229,2a.211.211,0,0,0,.121.237,5.4,5.4,0,0,0,3.876.72,5.481,5.481,0,1,0-6.294-6.831A4.952,4.952,0,0,0,97.489,2963.456Zm9.156-5.5a6.618,6.618,0,0,1,0,10.94h5.118a3.912,3.912,0,0,1,3.254-3.252v-4.436a3.914,3.914,0,0,1-3.253-3.252ZM94.152,2968.9h1.359c.015-.155.029-.3.044-.45.087-.873.183-1.744.259-2.617a2.938,2.938,0,0,1,.425-1.475.886.886,0,0,0,.156-.588,6.493,6.493,0,0,1,2.361-5.4c.164-.141.341-.267.53-.414H94.149a3.861,3.861,0,0,1-3.233,3.235v4.467A3.87,3.87,0,0,1,94.152,2968.9Zm8.819-12.061h2.18c0-.357,0-.705,0-1.052a1.06,1.06,0,0,0-.034-.251,1.106,1.106,0,0,0-1.144-.874,1.073,1.073,0,0,0-.994.97C102.945,2956.029,102.971,2956.429,102.971,2956.84ZM90.912,2968.9h2.113a2.714,2.714,0,0,0-2.113-2.108Zm24.1,0v-2.113a2.716,2.716,0,0,0-2.108,2.113Zm-24.1-8.831a2.676,2.676,0,0,0,2.1-2.109h-2.1Zm24.1,0v-2.114H112.9A2.713,2.713,0,0,0,115.014,2960.071Zm-6.581-3.229a1.141,1.141,0,0,0-1.121-1.091,1.089,1.089,0,0,0-1.044,1.091Zm-6.583,0a1.075,1.075,0,0,0-1.033-1.087,1.124,1.124,0,0,0-1.128,1.087Z" fill="#fff"/>
    <path id="Trazado_3646" data-name="Trazado 3646" d="M109.523,2979.312a1.627,1.627,0,0,1,.094-.262c.332-.589.67-1.174,1.005-1.762a.549.549,0,0,1,.545-.3.543.543,0,0,1,.425.82c-.223.405-.456.8-.686,1.206-.113.2-.222.4-.341.595a.543.543,0,0,1-.619.247A.581.581,0,0,1,109.523,2979.312Z" fill="#fff"/>
    <path id="Trazado_3647" data-name="Trazado 3647" d="M111.544,2975.578a.551.551,0,0,1,1.1-.006.557.557,0,0,1-.551.55A.539.539,0,0,1,111.544,2975.578Z" fill="#fff"/>
    <path id="Trazado_3648" data-name="Trazado 3648" d="M103.51,2966.158c0,.184,0,.362,0,.541a.547.547,0,1,1-1.093,0c0-.168,0-.337,0-.526-.225,0-.437,0-.649,0a1.6,1.6,0,0,1-.268-.013.548.548,0,0,1,.087-1.088c.543,0,1.086,0,1.629,0a.547.547,0,1,0,.009-1.093,6.221,6.221,0,0,1-.877-.044,1.638,1.638,0,0,1-.073-3.192c.119-.029.152-.076.144-.19-.009-.144-.006-.289,0-.433a.537.537,0,0,1,.552-.529.531.531,0,0,1,.539.526c.006.183,0,.366,0,.566.28,0,.543,0,.806,0a.55.55,0,0,1,.535.74.537.537,0,0,1-.517.359c-.548,0-1.1,0-1.644,0a.546.546,0,0,0-.407.908.589.589,0,0,0,.455.187,5.144,5.144,0,0,1,.834.039,1.613,1.613,0,0,1,1.309,1.536,1.639,1.639,0,0,1-1.233,1.662Z" fill="#fff"/>
    <path id="Trazado_3649" data-name="Trazado 3649" d="M112.02,2962.881c.1,0,.19,0,.284,0a.541.541,0,0,1,.53.538.534.534,0,0,1-.511.553,5.968,5.968,0,0,1-.627,0,.546.546,0,0,1,.011-1.09c.1-.006.209,0,.313,0Z" fill="#fff"/>
    <path id="Trazado_3650" data-name="Trazado 3650" d="M93.909,2963.974c-.1,0-.21.007-.313,0a.545.545,0,0,1,.007-1.088c.209-.01.419-.01.627,0a.545.545,0,0,1,.007,1.088C94.128,2963.981,94.018,2963.974,93.909,2963.974Z" fill="#fff"/>
  </g>
</svg>
