<svg xmlns="http://www.w3.org/2000/svg" width="32.162" height="32.163" viewBox="0 0 32.162 32.163">
  <path id="Trazado_2315" data-name="Trazado 2315" d="M3787.779,2141.816a16.082,16.082,0,1,0,16.081,16.081,16.081,16.081,0,0,0-16.081-16.081m13.908,21.716-4.574.788a23.922,23.922,0,0,0,.842-5.887h4.82a14.876,14.876,0,0,1-1.088,5.1Zm-28.9-5.1h4.82a24.038,24.038,0,0,0,.841,5.887l-4.573-.788a14.923,14.923,0,0,1-1.088-5.1Zm1.088-6.169,4.573-.789a24.079,24.079,0,0,0-.841,5.885h-4.82a14.929,14.929,0,0,1,1.088-5.1Zm14.444-1.843a36.8,36.8,0,0,1,5.746.524l1.892.326a23,23,0,0,1,.934,6.089h-8.572Zm5.929-.532a38.028,38.028,0,0,0-5.929-.541v-6.43c3.074.295,5.743,3.109,7.255,7.2Zm-7-.539a37.979,37.979,0,0,0-5.929.541l-1.326.23c1.513-4.094,4.182-6.911,7.255-7.205Zm-5.746,1.6a36.792,36.792,0,0,1,5.746-.526v6.939h-8.566a22.977,22.977,0,0,1,.929-6.087Zm-2.82,7.486h8.566v6.939a36.878,36.878,0,0,1-5.746-.524l-1.893-.326a23.028,23.028,0,0,1-.929-6.088Zm2.636,7.471a38.146,38.146,0,0,0,5.93.546v6.433c-3.073-.3-5.742-3.11-7.255-7.2Zm7,.543a38.149,38.149,0,0,0,5.929-.543l1.327-.23c-1.512,4.094-4.182,6.911-7.256,7.2Zm5.747-1.6a36.9,36.9,0,0,1-5.747.524v-6.939h8.575a23.064,23.064,0,0,1-.93,6.087Zm3.9-7.488a23.918,23.918,0,0,0-.842-5.887l4.574.789a14.878,14.878,0,0,1,1.088,5.1Zm3.192-6.28-4.383-.756a14.8,14.8,0,0,0-4.265-6.674,15.083,15.083,0,0,1,8.645,7.432Zm-18.085-7.428a14.776,14.776,0,0,0-4.265,6.675l-4.384.756a15.08,15.08,0,0,1,8.649-7.431m-8.649,21.063,4.384.757a14.776,14.776,0,0,0,4.265,6.668,15.08,15.08,0,0,1-8.649-7.425m18.083,7.425a14.765,14.765,0,0,0,4.265-6.674l4.383-.751a15.078,15.078,0,0,1-8.648,7.425" transform="translate(-3771.698 -2141.816)" fill="#fff"/>
</svg>
