<svg xmlns="http://www.w3.org/2000/svg" width="24.611" height="20.969" viewBox="0 0 24.611 20.969">
  <g id="box_1_" data-name="box (1)" opacity="0.6">
    <path id="Trazado_10306" data-name="Trazado 10306" d="M6.076,34.181,14,35.716c.32.062.667.123.79.139l.434,0,.019,0c.123-.016.47-.077.79-.139l7.928-1.535c.115-.022.465-.09.463-.389s-.352-.364-.467-.385l-8.327-1.53a4.013,4.013,0,0,0-1.229,0L6.08,33.406c-.115.021-.465.086-.467.385S5.961,34.159,6.076,34.181Z" transform="translate(-5.292 -31.829)" fill="#00bf78"/>
    <path id="Trazado_10307" data-name="Trazado 10307" d="M19.458,111.842v-5.126a.735.735,0,0,0-.743-.76.839.839,0,0,0-.159.015l-7.463,1.445c-.3.059-.8.135-1.105.17,0,0-.067.006-.259.006s-.256-.006-.256-.006h0c-.308-.035-.8-.111-1.108-.17L.9,105.971a.839.839,0,0,0-.159-.015.735.735,0,0,0-.743.76v10.229a1.007,1.007,0,0,0,.793.962l8.32,1.611a3.815,3.815,0,0,0,1.232,0l3.644-.706a5.424,5.424,0,1,0,5.47-6.97Zm-.272,9.126a3.708,3.708,0,1,1,3.708-3.708A3.712,3.712,0,0,1,19.186,120.967Z" transform="translate(0 -101.715)" fill="#00bf78"/>
    <path id="Trazado_10308" data-name="Trazado 10308" d="M297.031,266.674l-1.634,1.914-.69-.69a.858.858,0,0,0-1.214,1.214l.9.9a1.448,1.448,0,0,0,1.02.425h.055a1.446,1.446,0,0,0,1.038-.508l1.828-2.141a.858.858,0,0,0-1.305-1.115Z" transform="translate(-276.465 -252.954)" fill="#00bf78"/>
  </g>
</svg>
