<svg id="chef" xmlns="http://www.w3.org/2000/svg" width="21.03" height="21.03" viewBox="0 0 21.03 21.03">
  <g id="Grupo_8296" data-name="Grupo 8296">
    <g id="Grupo_8295" data-name="Grupo 8295">
      <path id="Trazado_10320" data-name="Trazado 10320" d="M78.856,384H64.521a.478.478,0,0,0-.478.477l0,1.394a1.951,1.951,0,0,0,1.95,1.952H77.384a1.952,1.952,0,0,0,1.95-1.95v-1.4A.478.478,0,0,0,78.856,384Z" transform="translate(-61.171 -366.794)" fill="#f6b970"/>
      <path id="Trazado_10321" data-name="Trazado 10321" d="M15.773,1.912A4.955,4.955,0,0,0,14.861,2,5.731,5.731,0,0,0,4.78,5.735a.478.478,0,0,1-.956,0A6.6,6.6,0,0,1,4.531,2.76a.478.478,0,0,0-.543-.678,5.244,5.244,0,0,0-1.109,9.772l-.005,3.917a.477.477,0,0,0,.478.478H17.684a.478.478,0,0,0,.478-.478V11.848a5.255,5.255,0,0,0-2.39-9.936ZM6.995,13.274a.479.479,0,0,1-.673-.066c-.158-.193-1.542-1.916-1.542-3.171a.478.478,0,0,1,.956,0A5.793,5.793,0,0,0,7.061,12.6.479.479,0,0,1,6.995,13.274Zm4-.37a.478.478,0,1,1-.956,0V10.037a.478.478,0,1,1,.956,0V12.9Zm3.715.3a.478.478,0,0,1-.739-.606,5.814,5.814,0,0,0,1.326-2.565.478.478,0,0,1,.956,0C16.251,11.292,14.866,13.015,14.708,13.208Z" fill="#f6b970"/>
    </g>
  </g>
</svg>
