<svg id="soup" xmlns="http://www.w3.org/2000/svg" width="23.019" height="23.019" viewBox="0 0 23.019 23.019">
  <g id="Grupo_8298" data-name="Grupo 8298" transform="translate(0 10.463)">
    <g id="Grupo_8297" data-name="Grupo 8297">
      <path id="Trazado_10329" data-name="Trazado 10329" d="M23.019,233.772a1.046,1.046,0,0,0-1.046-1.046H1.046A1.046,1.046,0,0,0,0,233.772a11.512,11.512,0,0,0,5.473,9.8,1.046,1.046,0,0,0,.805,1.714H16.741a1.046,1.046,0,0,0,.805-1.714A11.512,11.512,0,0,0,23.019,233.772Z" transform="translate(0 -232.726)" fill="#9d9df9"/>
    </g>
  </g>
  <g id="Grupo_8300" data-name="Grupo 8300" transform="translate(4.534 0)">
    <g id="Grupo_8299" data-name="Grupo 8299">
      <path id="Trazado_10330" data-name="Trazado 10330" d="M103.679,4.492c-.513-.513-.74-.764-.74-1.353s.227-.84.74-1.353A1.046,1.046,0,0,0,102.2.307a3.73,3.73,0,0,0-1.353,2.832A3.729,3.729,0,0,0,102.2,5.972c.513.513.74.765.74,1.353a1.046,1.046,0,0,0,1.046,1.046h0a1.046,1.046,0,0,0,1.046-1.046A3.73,3.73,0,0,0,103.679,4.492Z" transform="translate(-100.847 -0.001)" fill="#9d9df9"/>
    </g>
  </g>
  <g id="Grupo_8302" data-name="Grupo 8302" transform="translate(9.417 0)">
    <g id="Grupo_8301" data-name="Grupo 8301">
      <path id="Trazado_10331" data-name="Trazado 10331" d="M212.285,4.492c-.513-.513-.74-.764-.74-1.353s.227-.84.74-1.353a1.046,1.046,0,0,0-1.48-1.48,3.73,3.73,0,0,0-1.353,2.832,3.729,3.729,0,0,0,1.353,2.832c.513.513.74.765.74,1.353a1.046,1.046,0,0,0,1.046,1.046h0a1.046,1.046,0,0,0,1.046-1.046A3.73,3.73,0,0,0,212.285,4.492Z" transform="translate(-209.453 -0.001)" fill="#9d9df9"/>
    </g>
  </g>
  <g id="Grupo_8304" data-name="Grupo 8304" transform="translate(16.81 4.185)">
    <g id="Grupo_8303" data-name="Grupo 8303">
      <path id="Trazado_10332" data-name="Trazado 10332" d="M378.321,93.309a1.046,1.046,0,0,0-1.468.184l-2.941,3.781h2.651l1.942-2.5A1.046,1.046,0,0,0,378.321,93.309Z" transform="translate(-373.912 -93.089)" fill="#9d9df9"/>
    </g>
  </g>
</svg>
