<svg id="delivery-man" xmlns="http://www.w3.org/2000/svg" width="14.758" height="23.711" viewBox="0 0 14.758 23.711">
  <path id="Trazado_10309" data-name="Trazado 10309" d="M96.533,119.393a.861.861,0,0,0-.828-.777l-2.8-.043a.387.387,0,0,1-.353-.306l-.617-3.923a.829.829,0,0,0-.878-.722l-3.483.152a.781.781,0,0,0-.832.869s-.015,8.72-.032,9.036l-.122,2.157a3.565,3.565,0,0,1-.245,1.018l-1.41,3.191a.735.735,0,0,0,.506,1.033l.469.116a.9.9,0,0,0,.217.026,1.017,1.017,0,0,0,.9-.547l1.34-2.731a6.632,6.632,0,0,0,.411-1.14l.756-3.15,1.83,2.8a2.676,2.676,0,0,1,.341.947l.354,3.133a.934.934,0,0,0,.905.809l.535,0a.782.782,0,0,0,.785-.869l-.369-3.725a5.423,5.423,0,0,0-.281-1.188l-1.64-4.283-.01-.9,3.811-.141a.767.767,0,0,0,.739-.83Zm-3.568,11.683Z" transform="translate(-84.864 -107.628)" fill="#72c1a3"/>
  <path id="Trazado_10310" data-name="Trazado 10310" d="M110.941,5.166A2.584,2.584,0,0,0,113.509,2.3l.865-.1a.916.916,0,0,0,.712-.56l.29-.792a.506.506,0,0,0-.045-.47.485.485,0,0,0-.407-.2l-.061,0-2.5.238a2.582,2.582,0,1,0-1.419,4.739Z" transform="translate(-107.118)" fill="#72c1a3"/>
  <path id="Trazado_10311" data-name="Trazado 10311" d="M245.8,96.441l-.249-3.579a.841.841,0,0,0-.828-.771l-4.784.008a.751.751,0,0,0-.753.809l.249,3.579a.841.841,0,0,0,.826.771l4.785-.008a.751.751,0,0,0,.753-.809ZM240.261,97Z" transform="translate(-231.043 -87.234)" fill="#72c1a3"/>
</svg>
