<svg xmlns="http://www.w3.org/2000/svg" width="25.92" height="20.557" viewBox="0 0 25.92 20.557">
  <g id="alarm-clock" transform="translate(0 -1.873)">
    <g id="Grupo_8290" data-name="Grupo 8290" transform="translate(3.724 0)">
      <g id="Grupo_8289" data-name="Grupo 8289">
        <path id="Trazado_10317" data-name="Trazado 10317" d="M83.783,38.476c1.536-2.032-3.958-3.568-1.979,0a9.236,9.236,0,1,0,1.979,0Zm3.3,10.177H82.793a.99.99,0,0,1-.99-.99V43.376a.99.99,0,0,1,1.979,0v3.3h3.3a.99.99,0,0,1,0,1.979Z" transform="translate(-73.557 -34.465)" fill="#f88c5a"/>
      </g>
    </g>
    <g id="Grupo_8292" data-name="Grupo 8292" transform="translate(18.751 2.057)">
      <g id="Grupo_8291" data-name="Grupo 8291">
        <path id="Trazado_10318" data-name="Trazado 10318" d="M377.54,83.654a13.107,13.107,0,0,0-5.61-8.4.99.99,0,0,0-1.1,1.646,11.141,11.141,0,0,1,4.769,7.137.99.99,0,0,0,1.941-.386Z" transform="translate(-370.39 -75.091)" fill="#f88c5a"/>
      </g>
    </g>
    <g id="Grupo_8294" data-name="Grupo 8294" transform="translate(0 2.057)">
      <g id="Grupo_8293" data-name="Grupo 8293">
        <path id="Trazado_10319" data-name="Trazado 10319" d="M7,75.531a.99.99,0,0,0-1.373-.273,13.108,13.108,0,0,0-5.61,8.4.99.99,0,1,0,1.941.386A11.141,11.141,0,0,1,6.729,76.9.99.99,0,0,0,7,75.531Z" transform="translate(0 -75.091)" fill="#f88c5a"/>
      </g>
    </g>
  </g>
</svg>
